<svg xmlns="http://www.w3.org/2000/svg" xmlns:xlink="http://www.w3.org/1999/xlink" xmlns:lucid="lucid" width="3044.43" height="2838"><g transform="translate(785.6251930273713 1577)" lucid:page-tab-id="0_0"><path d="M-764.63-1550a6 6 0 0 1 6-6h108a6 6 0 0 1 6 6v88a6 6 0 0 1-6 6h-108a6 6 0 0 1-6-6z" stroke="#ff80df" stroke-width="2" fill="#fff0fb"/><use xlink:href="#a" transform="matrix(1,0,0,1,-764.6251930273713,-1556) translate(23.029691358024678 39.65277777777778)"/><use xlink:href="#b" transform="matrix(1,0,0,1,-764.6251930273713,-1556) translate(22.38154320987654 66.31944444444446)"/><path d="M-704.63-1454.5v5m0 5v9.98m0 5v10m0 5v9.98m0 5v10m0 5v9.98m0 5v10m0 4.98v10m0 5v9.98m0 5v10m0 5v9.98m0 5v10m0 4.98v10m0 5v10m0 4.98v10m0 5v9.98m0 5v10m0 5v9.98m0 5v10m0 4.98v10m0 5v10m0 4.98v10m0 5v9.98m0 5v10m0 5v9.98m0 5v10m0 4.98v10m0 5v9.98m0 5v10m0 5v9.98m0 5v10m0 5v9.98m0 5v10m0 4.98v10m0 5v9.98m0 5v10m0 5v9.98m0 5v10m0 5v9.98m0 5v10m0 4.98v10m0 5v9.98m0 5v10m0 5v9.98m0 5v10m0 4.98v10m0 5v9.98m0 5v10m0 5v9.98m0 5v10m0 5v9.98m0 5v10m0 4.98v10m0 5v9.98m0 5v10m0 5v9.98m0 5v10m0 5v9.98m0 5v10m0 4.98v10m0 5v9.98m0 5v10m0 5v9.98m0 5v10m0 4.98v10m0 5v10m0 4.98v10m0 5v9.98m0 5v10m0 5v9.98m0 5v10m0 4.98v10m0 5v9.98m0 5v10m0 5v9.98m0 5v10m0 5v9.98m0 5v10m0 4.98v10m0 5v9.98m0 5v10m0 5v9.98m0 5v10m0 4.98v10m0 5v10m0 4.98v10m0 5v9.98m0 5v10m0 5v9.98m0 5v10m0 4.98v10m0 5v9.98m0 5v10m0 5v9.98m0 5v10m0 5v9.98m0 5v10m0 4.98v10m0 5v9.98m0 5v10m0 5v9.98m0 5v10m0 4.98v10m0 5v10m0 4.98v10m0 5v9.98m0 5v10m0 5v9.98m0 5v10m0 4.98v10m0 5v9.98m0 5v10m0 5v9.98m0 5v10m0 5v9.98m0 5v10m0 4.98v10m0 5v9.98m0 5v10m0 5v9.98m0 5v10m0 5v9.98m0 5v10m0 4.98v10m0 5v9.98m0 5v10m0 5v9.98m0 5v10m0 4.98v10m0 5v10m0 4.98v10m0 5v9.98m0 5v10m0 5v9.98m0 5v10m0 4.98v10m0 5v9.98m0 5v10m0 5v9.98m0 5v10m0 5v9.98m0 5v10m0 4.98v10m0 5v9.98m0 5v10m0 5v9.98m0 5v10m0 4.98v10m0 5v10m0 4.98v10m0 5v9.98m0 5v10m0 5v9.98m0 5v10m0 4.98v10m0 5v9.98m0 5v10m0 5v9.98m0 5v10m0 5v9.98m0 5v10m0 4.98v10m0 5v9.98m0 5v10m0 5v9.98m0 5v10m0 5v9.98m0 5v10m0 4.98v10m0 5v9.98m0 5v10m0 5v9.98m0 5v10m0 4.98v5" stroke="#3a414a" fill="none"/><path d="M-704.15-1454.5h-.95v-.5h.95zM-704.15 1139h-.95v-.5h.95z" stroke="#3a414a" stroke-width=".05" fill="#3a414a"/><path d="M-380.3-1454.5v5m0 5v9.98m0 5v10m0 5v9.98m0 5v10m0 5v9.98m0 5v10m0 4.98v10m0 5v9.98m0 5v10m0 5v9.98m0 5v10m0 4.98v10m0 5v10m0 4.98v10m0 5v9.98m0 5v10m0 5v9.98m0 5v10m0 4.98v10m0 5v10m0 4.98v10m0 5v9.98m0 5v10m0 5v9.98m0 5v10m0 4.98v10m0 5v9.98m0 5v10m0 5v9.98m0 5v10m0 5v9.98m0 5v10m0 4.98v10m0 5v9.98m0 5v10m0 5v9.98m0 5v10m0 5v9.98m0 5v10m0 4.98v10m0 5v9.98m0 5v10m0 5v9.98m0 5v10m0 4.98v10m0 5v9.98m0 5v10m0 5v9.98m0 5v10m0 5v9.98m0 5v10m0 4.98v10m0 5v9.98m0 5v10m0 5v9.98m0 5v10m0 5v9.98m0 5v10m0 4.98v10m0 5v9.98m0 5v10m0 5v9.98m0 5v10m0 4.98v10m0 5v10m0 4.98v10m0 5v9.98m0 5v10m0 5v9.98m0 5v10m0 4.98v10m0 5v9.98m0 5v10m0 5v9.98m0 5v10m0 5v9.98m0 5v10m0 4.98v10m0 5v9.98m0 5v10m0 5v9.98m0 5v10m0 4.98v10m0 5v10m0 4.98v10m0 5v9.98m0 5v10m0 5v9.98m0 5v10m0 4.98v10m0 5v9.98m0 5v10m0 5v9.98m0 5v10m0 5v9.98m0 5v10m0 4.98v10m0 5v9.98m0 5v10m0 5v9.98m0 5v10m0 4.98v10m0 5v10m0 4.98v10m0 5v9.98m0 5v10m0 5v9.98m0 5v10m0 4.98v10m0 5v9.98m0 5v10m0 5v9.98m0 5v10m0 5v9.98m0 5v10m0 4.98v10m0 5v9.98m0 5v10m0 5v9.98m0 5v10m0 5v9.98m0 5v10m0 4.98v10m0 5v9.98m0 5v10m0 5v9.98m0 5v10m0 4.98v10m0 5v10m0 4.98v10m0 5v9.98m0 5v10m0 5v9.98m0 5v10m0 4.98v10m0 5v9.98m0 5v10m0 5v9.98m0 5v10m0 5v9.98m0 5v10m0 4.98v10m0 5v9.98m0 5v10m0 5v9.98m0 5v10m0 4.98v10m0 5v10m0 4.98v10m0 5v9.98m0 5v10m0 5v9.98m0 5v10m0 4.98v10m0 5v9.98m0 5v10m0 5v9.98m0 5v10m0 5v9.98m0 5v10m0 4.98v10m0 5v9.98m0 5v10m0 5v9.98m0 5v10m0 5v9.98m0 5v10m0 4.98v10m0 5v9.98m0 5v10m0 5v9.98m0 5v10m0 4.98v5" stroke="#3a414a" fill="none"/><path d="M-379.82-1454.5h-.95v-.5h.95zM-379.82 1139h-.95v-.5h.95z" stroke="#3a414a" stroke-width=".05" fill="#3a414a"/><path d="M-55.96-1454.5v5m0 5v9.98m0 5v10m0 5v9.98m0 5v10m0 5v9.98m0 5v10m0 4.98v10m0 5v9.98m0 5v10m0 5v9.98m0 5v10m0 4.98v10m0 5v10m0 4.98v10m0 5v9.98m0 5v10m0 5v9.98m0 5v10m0 4.98v10m0 5v10m0 4.98v10m0 5v9.98m0 5v10m0 5v9.98m0 5v10m0 4.98v10m0 5v9.98m0 5v10m0 5v9.98m0 5v10m0 5v9.98m0 5v10m0 4.98v10m0 5v9.98m0 5v10m0 5v9.98m0 5v10m0 5v9.98m0 5v10m0 4.98v10m0 5v9.98m0 5v10m0 5v9.98m0 5v10m0 4.98v10m0 5v9.98m0 5v10m0 5v9.98m0 5v10m0 5v9.98m0 5v10m0 4.98v10m0 5v9.98m0 5v10m0 5v9.98m0 5v10m0 5v9.98m0 5v10m0 4.98v10m0 5v9.98m0 5v10m0 5v9.98m0 5v10m0 4.98v10m0 5v10m0 4.98v10m0 5v9.98m0 5v10m0 5v9.98m0 5v10m0 4.98v10m0 5v9.98m0 5v10m0 5v9.98m0 5v10m0 5v9.98m0 5v10m0 4.98v10m0 5v9.98m0 5v10m0 5v9.98m0 5v10m0 4.98v10m0 5v10m0 4.98v10m0 5v9.98m0 5v10m0 5v9.98m0 5v10m0 4.98v10m0 5v9.98m0 5v10m0 5v9.98m0 5v10m0 5v9.98m0 5v10m0 4.98v10m0 5v9.98m0 5v10m0 5v9.98m0 5v10m0 4.98v10m0 5v10m0 4.98v10m0 5v9.98m0 5v10m0 5v9.98m0 5v10m0 4.98v10m0 5v9.98m0 5v10m0 5v9.98m0 5v10m0 5v9.98m0 5v10m0 4.98v10m0 5v9.98m0 5v10m0 5v9.98m0 5v10m0 5v9.98m0 5v10m0 4.98v10m0 5v9.98m0 5v10m0 5v9.98m0 5v10m0 4.98v10m0 5v10m0 4.98v10m0 5v9.98m0 5v10m0 5v9.98m0 5v10m0 4.98v10m0 5v9.98m0 5v10m0 5v9.98m0 5v10m0 5v9.98m0 5v10m0 4.98v10m0 5v9.98m0 5v10m0 5v9.98m0 5v10m0 4.98v10m0 5v10m0 4.98v10m0 5v9.98m0 5v10m0 5v9.98m0 5v10m0 4.98v10m0 5v9.98m0 5v10m0 5v9.98m0 5v10m0 5v9.98m0 5v10m0 4.98v10m0 5v9.98m0 5v10m0 5v9.98m0 5v10m0 5v9.98m0 5v10m0 4.98v10m0 5v9.98m0 5v10m0 5v9.98m0 5v10m0 4.98v5" stroke="#3a414a" fill="none"/><path d="M-55.48-1454.5h-.95v-.5h.95zM-55.48 1139h-.95v-.5h.95z" stroke="#3a414a" stroke-width=".05" fill="#3a414a"/><path d="M184.6-1454.5v5m0 5v9.98m0 5v10m0 5v9.98m0 5v10m0 5v9.98m0 5v10m0 4.98v10m0 5v9.98m0 5v10m0 5v9.98m0 5v10m0 4.98v10m0 5v10m0 4.98v10m0 5v9.98m0 5v10m0 5v9.98m0 5v10m0 4.98v10m0 5v10m0 4.98v10m0 5v9.98m0 5v10m0 5v9.98m0 5v10m0 4.98v10m0 5v9.98m0 5v10m0 5v9.98m0 5v10m0 5v9.98m0 5v10m0 4.98v10m0 5v9.98m0 5v10m0 5v9.98m0 5v10m0 5v9.98m0 5v10m0 4.98v10m0 5v9.98m0 5v10m0 5v9.98m0 5v10m0 4.98v10m0 5v9.98m0 5v10m0 5v9.98m0 5v10m0 5v9.98m0 5v10m0 4.98v10m0 5v9.98m0 5v10m0 5v9.98m0 5v10m0 5v9.98m0 5v10m0 4.98v10m0 5v9.98m0 5v10m0 5v9.98m0 5v10m0 4.98v10m0 5v10m0 4.98v10m0 5v9.98m0 5v10m0 5v9.98m0 5v10m0 4.98v10m0 5v9.98m0 5v10m0 5v9.98m0 5v10m0 5v9.98m0 5v10m0 4.98v10m0 5v9.98m0 5v10m0 5v9.98m0 5v10m0 4.98v10m0 5v10m0 4.98v10m0 5v9.98m0 5v10m0 5v9.98m0 5v10m0 4.98v10m0 5v9.98m0 5v10m0 5v9.98m0 5v10m0 5v9.98m0 5v10m0 4.98v10m0 5v9.98m0 5v10m0 5v9.98m0 5v10m0 4.98v10m0 5v10m0 4.98v10m0 5v9.98m0 5v10m0 5v9.98m0 5v10m0 4.98v10m0 5v9.98m0 5v10m0 5v9.98m0 5v10m0 5v9.98m0 5v10m0 4.98v10m0 5v9.98m0 5v10m0 5v9.98m0 5v10m0 5v9.98m0 5v10m0 4.98v10m0 5v9.98m0 5v10m0 5v9.98m0 5v10m0 4.98v10m0 5v10m0 4.98v10m0 5v9.98m0 5v10m0 5v9.98m0 5v10m0 4.98v10m0 5v9.98m0 5v10m0 5v9.98m0 5v10m0 5v9.98m0 5v10m0 4.98v10m0 5v9.98m0 5v10m0 5v9.98m0 5v10m0 4.98v10m0 5v10m0 4.98v10m0 5v9.98m0 5v10m0 5v9.98m0 5v10m0 4.98v10m0 5v9.98m0 5v10m0 5v9.98m0 5v10m0 5v9.98m0 5v10m0 4.98v10m0 5v9.98m0 5v10m0 5v9.98m0 5v10m0 5v9.98m0 5v10m0 4.98v10m0 5v9.98m0 5v10m0 5v9.98m0 5v10m0 4.98v5" stroke="#3a414a" fill="none"/><path d="M185.08-1454.5h-.95v-.5h.95zM185.08 1139h-.95v-.5h.95z" stroke="#3a414a" stroke-width=".05" fill="#3a414a"/><path d="M425.18-1454.5v5m0 5v9.98m0 5v10m0 5v9.98m0 5v10m0 5v9.98m0 5v10m0 4.98v10m0 5v9.98m0 5v10m0 5v9.98m0 5v10m0 4.98v10m0 5v10m0 4.98v10m0 5v9.98m0 5v10m0 5v9.98m0 5v10m0 4.98v10m0 5v10m0 4.98v10m0 5v9.98m0 5v10m0 5v9.98m0 5v10m0 4.98v10m0 5v9.98m0 5v10m0 5v9.98m0 5v10m0 5v9.98m0 5v10m0 4.98v10m0 5v9.98m0 5v10m0 5v9.98m0 5v10m0 5v9.98m0 5v10m0 4.98v10m0 5v9.98m0 5v10m0 5v9.98m0 5v10m0 4.98v10m0 5v9.98m0 5v10m0 5v9.98m0 5v10m0 5v9.98m0 5v10m0 4.98v10m0 5v9.98m0 5v10m0 5v9.98m0 5v10m0 5v9.98m0 5v10m0 4.98v10m0 5v9.98m0 5v10m0 5v9.98m0 5v10m0 4.98v10m0 5v10m0 4.98v10m0 5v9.98m0 5v10m0 5v9.98m0 5v10m0 4.98v10m0 5v9.98m0 5v10m0 5v9.98m0 5v10m0 5v9.98m0 5v10m0 4.98v10m0 5v9.98m0 5v10m0 5v9.98m0 5v10m0 4.98v10m0 5v10m0 4.98v10m0 5v9.98m0 5v10m0 5v9.98m0 5v10m0 4.98v10m0 5v9.98m0 5v10m0 5v9.98m0 5v10m0 5v9.98m0 5v10m0 4.98v10m0 5v9.98m0 5v10m0 5v9.98m0 5v10m0 4.98v10m0 5v10m0 4.98v10m0 5v9.98m0 5v10m0 5v9.98m0 5v10m0 4.98v10m0 5v9.98m0 5v10m0 5v9.98m0 5v10m0 5v9.98m0 5v10m0 4.98v10m0 5v9.98m0 5v10m0 5v9.98m0 5v10m0 5v9.98m0 5v10m0 4.98v10m0 5v9.98m0 5v10m0 5v9.98m0 5v10m0 4.98v10m0 5v10m0 4.98v10m0 5v9.98m0 5v10m0 5v9.98m0 5v10m0 4.98v10m0 5v9.98m0 5v10m0 5v9.98m0 5v10m0 5v9.98m0 5v10m0 4.98v10m0 5v9.98m0 5v10m0 5v9.98m0 5v10m0 4.98v10m0 5v10m0 4.98v10m0 5v9.98m0 5v10m0 5v9.98m0 5v10m0 4.98v10m0 5v9.98m0 5v10m0 5v9.98m0 5v10m0 5v9.98m0 5v10m0 4.98v10m0 5v9.98m0 5v10m0 5v9.98m0 5v10m0 5v9.98m0 5v10m0 4.98v10m0 5v9.98m0 5v10m0 5v9.98m0 5v10m0 4.98v5" stroke="#3a414a" fill="none"/><path d="M425.65-1454.5h-.95v-.5h.95zM425.65 1139h-.95v-.5h.95z" stroke="#3a414a" stroke-width=".05" fill="#3a414a"/><path d="M665.18-1454.5v5m0 5v9.98m0 5v10m0 5v9.98m0 5v10m0 5v9.98m0 5v10m0 4.98v10m0 5v9.98m0 5v10m0 5v9.98m0 5v10m0 4.98v10m0 5v10m0 4.98v10m0 5v9.98m0 5v10m0 5v9.98m0 5v10m0 4.98v10m0 5v10m0 4.98v10m0 5v9.98m0 5v10m0 5v9.98m0 5v10m0 4.98v10m0 5v9.98m0 5v10m0 5v9.98m0 5v10m0 5v9.98m0 5v10m0 4.98v10m0 5v9.98m0 5v10m0 5v9.98m0 5v10m0 5v9.98m0 5v10m0 4.98v10m0 5v9.98m0 5v10m0 5v9.98m0 5v10m0 4.98v10m0 5v9.98m0 5v10m0 5v9.98m0 5v10m0 5v9.98m0 5v10m0 4.98v10m0 5v9.98m0 5v10m0 5v9.98m0 5v10m0 5v9.98m0 5v10m0 4.98v10m0 5v9.98m0 5v10m0 5v9.98m0 5v10m0 4.98v10m0 5v10m0 4.98v10m0 5v9.98m0 5v10m0 5v9.98m0 5v10m0 4.98v10m0 5v9.98m0 5v10m0 5v9.98m0 5v10m0 5v9.98m0 5v10m0 4.98v10m0 5v9.98m0 5v10m0 5v9.98m0 5v10m0 4.98v10m0 5v10m0 4.98v10m0 5v9.98m0 5v10m0 5v9.98m0 5v10m0 4.98v10m0 5v9.98m0 5v10m0 5v9.98m0 5v10m0 5v9.98m0 5v10m0 4.98v10m0 5v9.98m0 5v10m0 5v9.98m0 5v10m0 4.98v10m0 5v10m0 4.98v10m0 5v9.98m0 5v10m0 5v9.98m0 5v10m0 4.98v10m0 5v9.98m0 5v10m0 5v9.98m0 5v10m0 5v9.98m0 5v10m0 4.98v10m0 5v9.98m0 5v10m0 5v9.98m0 5v10m0 5v9.98m0 5v10m0 4.98v10m0 5v9.98m0 5v10m0 5v9.98m0 5v10m0 4.98v10m0 5v10m0 4.98v10m0 5v9.98m0 5v10m0 5v9.98m0 5v10m0 4.98v10m0 5v9.98m0 5v10m0 5v9.98m0 5v10m0 5v9.98m0 5v10m0 4.98v10m0 5v9.98m0 5v10m0 5v9.98m0 5v10m0 4.98v10m0 5v10m0 4.98v10m0 5v9.98m0 5v10m0 5v9.98m0 5v10m0 4.98v10m0 5v9.98m0 5v10m0 5v9.98m0 5v10m0 5v9.98m0 5v10m0 4.98v10m0 5v9.98m0 5v10m0 5v9.98m0 5v10m0 5v9.98m0 5v10m0 4.98v10m0 5v9.98m0 5v10m0 5v9.98m0 5v10m0 4.98v5" stroke="#3a414a" fill="none"/><path d="M665.65-1454.5h-.95v-.5h.95zM665.65 1139h-.95v-.5h.95z" stroke="#3a414a" stroke-width=".05" fill="#3a414a"/><path d="M921.05-1454.5v5m0 5v9.98m0 5v10m0 5v9.98m0 5v10m0 5v9.98m0 5v10m0 4.98v10m0 5v9.98m0 5v10m0 5v9.98m0 5v10m0 4.98v10m0 5v10m0 4.98v10m0 5v9.98m0 5v10m0 5v9.98m0 5v10m0 4.98v10m0 5v10m0 4.98v10m0 5v9.98m0 5v10m0 5v9.98m0 5v10m0 4.98v10m0 5v9.98m0 5v10m0 5v9.98m0 5v10m0 5v9.98m0 5v10m0 4.98v10m0 5v9.98m0 5v10m0 5v9.98m0 5v10m0 5v9.98m0 5v10m0 4.98v10m0 5v9.98m0 5v10m0 5v9.98m0 5v10m0 4.98v10m0 5v9.98m0 5v10m0 5v9.98m0 5v10m0 5v9.98m0 5v10m0 4.98v10m0 5v9.98m0 5v10m0 5v9.98m0 5v10m0 5v9.98m0 5v10m0 4.98v10m0 5v9.98m0 5v10m0 5v9.98m0 5v10m0 4.98v10m0 5v10m0 4.98v10m0 5v9.98m0 5v10m0 5v9.98m0 5v10m0 4.98v10m0 5v9.98m0 5v10m0 5v9.98m0 5v10m0 5v9.98m0 5v10m0 4.98v10m0 5v9.98m0 5v10m0 5v9.98m0 5v10m0 4.98v10m0 5v10m0 4.98v10m0 5v9.98m0 5v10m0 5v9.98m0 5v10m0 4.98v10m0 5v9.98m0 5v10m0 5v9.98m0 5v10m0 5v9.98m0 5v10m0 4.98v10m0 5v9.98m0 5v10m0 5v9.98m0 5v10m0 4.98v10m0 5v10m0 4.98v10m0 5v9.98m0 5v10m0 5v9.98m0 5v10m0 4.98v10m0 5v9.98m0 5v10m0 5v9.98m0 5v10m0 5v9.98m0 5v10m0 4.98v10m0 5v9.98m0 5v10m0 5v9.98m0 5v10m0 5v9.98m0 5v10m0 4.98v10m0 5v9.98m0 5v10m0 5v9.98m0 5v10m0 4.98v10m0 5v10m0 4.98v10m0 5v9.98m0 5v10m0 5v9.98m0 5v10m0 4.98v10m0 5v9.98m0 5v10m0 5v9.98m0 5v10m0 5v9.98m0 5v10m0 4.98v10m0 5v9.98m0 5v10m0 5v9.98m0 5v10m0 4.98v10m0 5v10m0 4.98v10m0 5v9.98m0 5v10m0 5v9.98m0 5v10m0 4.98v10m0 5v9.98m0 5v10m0 5v9.98m0 5v10m0 5v9.98m0 5v10m0 4.98v10m0 5v9.98m0 5v10m0 5v9.98m0 5v10m0 5v9.98m0 5v10m0 4.98v10m0 5v9.98m0 5v10m0 5v9.98m0 5v10m0 4.98v5" stroke="#3a414a" fill="none"/><path d="M921.53-1454.5h-.95v-.5h.95zM921.53 1139h-.95v-.5h.95z" stroke="#3a414a" stroke-width=".05" fill="#3a414a"/><path d="M1277.34-1454.5v5m0 5v9.98m0 5v10m0 5v9.98m0 5v10m0 5v9.98m0 5v10m0 4.98v10m0 5v9.98m0 5v10m0 5v9.98m0 5v10m0 4.98v10m0 5v10m0 4.98v10m0 5v9.98m0 5v10m0 5v9.98m0 5v10m0 4.98v10m0 5v10m0 4.98v10m0 5v9.98m0 5v10m0 5v9.98m0 5v10m0 4.98v10m0 5v9.98m0 5v10m0 5v9.98m0 5v10m0 5v9.98m0 5v10m0 4.98v10m0 5v9.98m0 5v10m0 5v9.98m0 5v10m0 5v9.98m0 5v10m0 4.98v10m0 5v9.98m0 5v10m0 5v9.98m0 5v10m0 4.98v10m0 5v9.98m0 5v10m0 5v9.98m0 5v10m0 5v9.98m0 5v10m0 4.98v10m0 5v9.98m0 5v10m0 5v9.98m0 5v10m0 5v9.98m0 5v10m0 4.98v10m0 5v9.98m0 5v10m0 5v9.98m0 5v10m0 4.98v10m0 5v10m0 4.98v10m0 5v9.98m0 5v10m0 5v9.98m0 5v10m0 4.98v10m0 5v9.98m0 5v10m0 5v9.98m0 5v10m0 5v9.98m0 5v10m0 4.98v10m0 5v9.98m0 5v10m0 5v9.98m0 5v10m0 4.98v10m0 5v10m0 4.98v10m0 5v9.98m0 5v10m0 5v9.98m0 5v10m0 4.98v10m0 5v9.98m0 5v10m0 5v9.98m0 5v10m0 5v9.98m0 5v10m0 4.98v10m0 5v9.98m0 5v10m0 5v9.98m0 5v10m0 4.98v10m0 5v10m0 4.98v10m0 5v9.98m0 5v10m0 5v9.98m0 5v10m0 4.98v10m0 5v9.98m0 5v10m0 5v9.98m0 5v10m0 5v9.98m0 5v10m0 4.98v10m0 5v9.98m0 5v10m0 5v9.98m0 5v10m0 5v9.98m0 5v10m0 4.98v10m0 5v9.98m0 5v10m0 5v9.98m0 5v10m0 4.98v10m0 5v10m0 4.98v10m0 5v9.98m0 5v10m0 5v9.98m0 5v10m0 4.98v10m0 5v9.98m0 5v10m0 5v9.98m0 5v10m0 5v9.98m0 5v10m0 4.98v10m0 5v9.98m0 5v10m0 5v9.98m0 5v10m0 4.98v10m0 5v10m0 4.98v10m0 5v9.98m0 5v10m0 5v9.98m0 5v10m0 4.98v10m0 5v9.98m0 5v10m0 5v9.98m0 5v10m0 5v9.98m0 5v10m0 4.98v10m0 5v9.98m0 5v10m0 5v9.98m0 5v10m0 5v9.98m0 5v10m0 4.98v10m0 5v9.98m0 5v10m0 5v9.98m0 5v10m0 4.98v5" stroke="#3a414a" fill="none"/><path d="M1277.82-1454.5h-.95v-.5h.95zM1277.82 1139h-.95v-.5h.95z" stroke="#3a414a" stroke-width=".05" fill="#3a414a"/><path d="M1617.76-1454.5v5m0 5v9.98m0 5v10m0 5v9.98m0 5v10m0 5v9.98m0 5v10m0 4.98v10m0 5v9.98m0 5v10m0 5v9.98m0 5v10m0 4.98v10m0 5v10m0 4.98v10m0 5v9.98m0 5v10m0 5v9.98m0 5v10m0 4.98v10m0 5v10m0 4.98v10m0 5v9.98m0 5v10m0 5v9.98m0 5v10m0 4.98v10m0 5v9.98m0 5v10m0 5v9.98m0 5v10m0 5v9.98m0 5v10m0 4.98v10m0 5v9.98m0 5v10m0 5v9.98m0 5v10m0 5v9.98m0 5v10m0 4.98v10m0 5v9.98m0 5v10m0 5v9.98m0 5v10m0 4.98v10m0 5v9.98m0 5v10m0 5v9.98m0 5v10m0 5v9.98m0 5v10m0 4.98v10m0 5v9.98m0 5v10m0 5v9.98m0 5v10m0 5v9.98m0 5v10m0 4.98v10m0 5v9.98m0 5v10m0 5v9.98m0 5v10m0 4.98v10m0 5v10m0 4.98v10m0 5v9.98m0 5v10m0 5v9.98m0 5v10m0 4.98v10m0 5v9.98m0 5v10m0 5v9.98m0 5v10m0 5v9.98m0 5v10m0 4.98v10m0 5v9.98m0 5v10m0 5v9.98m0 5v10m0 4.98v10m0 5v10m0 4.98v10m0 5v9.98m0 5v10m0 5v9.98m0 5v10m0 4.98v10m0 5v9.98m0 5v10m0 5v9.98m0 5v10m0 5v9.98m0 5v10m0 4.98v10m0 5v9.98m0 5v10m0 5v9.98m0 5v10m0 4.98v10m0 5v10m0 4.98v10m0 5v9.98m0 5v10m0 5v9.98m0 5v10m0 4.98v10m0 5v9.98m0 5v10m0 5v9.98m0 5v10m0 5v9.98m0 5v10m0 4.98v10m0 5v9.98m0 5v10m0 5v9.98m0 5v10m0 5v9.98m0 5v10m0 4.98v10m0 5v9.98m0 5v10m0 5v9.98m0 5v10m0 4.98v10m0 5v10m0 4.98v10m0 5v9.98m0 5v10m0 5v9.98m0 5v10m0 4.98v10m0 5v9.98m0 5v10m0 5v9.98m0 5v10m0 5v9.98m0 5v10m0 4.98v10m0 5v9.98m0 5v10m0 5v9.98m0 5v10m0 4.98v10m0 5v10m0 4.98v10m0 5v9.98m0 5v10m0 5v9.98m0 5v10m0 4.98v10m0 5v9.98m0 5v10m0 5v9.98m0 5v10m0 5v9.98m0 5v10m0 4.98v10m0 5v9.98m0 5v10m0 5v9.98m0 5v10m0 5v9.98m0 5v10m0 4.98v10m0 5v9.98m0 5v10m0 5v9.98m0 5v10m0 4.98v5" stroke="#3a414a" fill="none"/><path d="M1618.23-1454.5h-.95v-.5h.95zM1618.23 1139h-.95v-.5h.95z" stroke="#3a414a" stroke-width=".05" fill="#3a414a"/><path d="M1876.72-1454.5v5m0 5v9.98m0 5v10m0 5v9.98m0 5v10m0 5v9.98m0 5v10m0 4.98v10m0 5v9.98m0 5v10m0 5v9.98m0 5v10m0 4.98v10m0 5v10m0 4.98v10m0 5v9.98m0 5v10m0 5v9.98m0 5v10m0 4.98v10m0 5v10m0 4.98v10m0 5v9.98m0 5v10m0 5v9.98m0 5v10m0 4.98v10m0 5v9.98m0 5v10m0 5v9.98m0 5v10m0 5v9.98m0 5v10m0 4.98v10m0 5v9.98m0 5v10m0 5v9.98m0 5v10m0 5v9.98m0 5v10m0 4.98v10m0 5v9.98m0 5v10m0 5v9.98m0 5v10m0 4.98v10m0 5v9.98m0 5v10m0 5v9.98m0 5v10m0 5v9.98m0 5v10m0 4.98v10m0 5v9.98m0 5v10m0 5v9.98m0 5v10m0 5v9.98m0 5v10m0 4.98v10m0 5v9.98m0 5v10m0 5v9.98m0 5v10m0 4.98v10m0 5v10m0 4.98v10m0 5v9.98m0 5v10m0 5v9.98m0 5v10m0 4.98v10m0 5v9.98m0 5v10m0 5v9.98m0 5v10m0 5v9.98m0 5v10m0 4.98v10m0 5v9.98m0 5v10m0 5v9.98m0 5v10m0 4.98v10m0 5v10m0 4.98v10m0 5v9.98m0 5v10m0 5v9.98m0 5v10m0 4.98v10m0 5v9.98m0 5v10m0 5v9.98m0 5v10m0 5v9.98m0 5v10m0 4.98v10m0 5v9.98m0 5v10m0 5v9.98m0 5v10m0 4.98v10m0 5v10m0 4.98v10m0 5v9.98m0 5v10m0 5v9.98m0 5v10m0 4.98v10m0 5v9.98m0 5v10m0 5v9.98m0 5v10m0 5v9.98m0 5v10m0 4.98v10m0 5v9.98m0 5v10m0 5v9.98m0 5v10m0 5v9.98m0 5v10m0 4.98v10m0 5v9.98m0 5v10m0 5v9.98m0 5v10m0 4.98v10m0 5v10m0 4.98v10m0 5v9.98m0 5v10m0 5v9.98m0 5v10m0 4.98v10m0 5v9.98m0 5v10m0 5v9.98m0 5v10m0 5v9.98m0 5v10m0 4.98v10m0 5v9.98m0 5v10m0 5v9.98m0 5v10m0 4.98v10m0 5v10m0 4.98v10m0 5v9.98m0 5v10m0 5v9.98m0 5v10m0 4.98v10m0 5v9.98m0 5v10m0 5v9.98m0 5v10m0 5v9.98m0 5v10m0 4.98v10m0 5v9.98m0 5v10m0 5v9.98m0 5v10m0 5v9.98m0 5v10m0 4.98v10m0 5v9.98m0 5v10m0 5v9.98m0 5v10m0 4.98v5" stroke="#3a414a" fill="none"/><path d="M1877.2-1454.5h-.96v-.5h.95zM1877.2 1139h-.96v-.5h.95z" stroke="#3a414a" stroke-width=".05" fill="#3a414a"/><path d="M2156.74-1454.5v5m0 5v9.98m0 5v10m0 5v9.98m0 5v10m0 5v9.98m0 5v10m0 4.98v10m0 5v9.98m0 5v10m0 5v9.98m0 5v10m0 4.98v10m0 5v10m0 4.98v10m0 5v9.98m0 5v10m0 5v9.98m0 5v10m0 4.98v10m0 5v10m0 4.98v10m0 5v9.98m0 5v10m0 5v9.98m0 5v10m0 4.98v10m0 5v9.98m0 5v10m0 5v9.98m0 5v10m0 5v9.98m0 5v10m0 4.98v10m0 5v9.98m0 5v10m0 5v9.98m0 5v10m0 5v9.98m0 5v10m0 4.98v10m0 5v9.98m0 5v10m0 5v9.98m0 5v10m0 4.98v10m0 5v9.98m0 5v10m0 5v9.98m0 5v10m0 5v9.98m0 5v10m0 4.98v10m0 5v9.98m0 5v10m0 5v9.98m0 5v10m0 5v9.98m0 5v10m0 4.98v10m0 5v9.98m0 5v10m0 5v9.98m0 5v10m0 4.98v10m0 5v10m0 4.98v10m0 5v9.98m0 5v10m0 5v9.98m0 5v10m0 4.98v10m0 5v9.98m0 5v10m0 5v9.98m0 5v10m0 5v9.98m0 5v10m0 4.98v10m0 5v9.98m0 5v10m0 5v9.98m0 5v10m0 4.98v10m0 5v10m0 4.98v10m0 5v9.98m0 5v10m0 5v9.98m0 5v10m0 4.98v10m0 5v9.98m0 5v10m0 5v9.98m0 5v10m0 5v9.98m0 5v10m0 4.98v10m0 5v9.98m0 5v10m0 5v9.98m0 5v10m0 4.98v10m0 5v10m0 4.98v10m0 5v9.98m0 5v10m0 5v9.98m0 5v10m0 4.98v10m0 5v9.98m0 5v10m0 5v9.98m0 5v10m0 5v9.98m0 5v10m0 4.98v10m0 5v9.98m0 5v10m0 5v9.98m0 5v10m0 5v9.98m0 5v10m0 4.98v10m0 5v9.98m0 5v10m0 5v9.98m0 5v10m0 4.98v10m0 5v10m0 4.98v10m0 5v9.98m0 5v10m0 5v9.98m0 5v10m0 4.98v10m0 5v9.98m0 5v10m0 5v9.98m0 5v10m0 5v9.98m0 5v10m0 4.98v10m0 5v9.98m0 5v10m0 5v9.98m0 5v10m0 4.98v10m0 5v10m0 4.98v10m0 5v9.98m0 5v10m0 5v9.98m0 5v10m0 4.98v10m0 5v9.98m0 5v10m0 5v9.98m0 5v10m0 5v9.98m0 5v10m0 4.98v10m0 5v9.98m0 5v10m0 5v9.98m0 5v10m0 5v9.98m0 5v10m0 4.98v10m0 5v9.98m0 5v10m0 5v9.98m0 5v10m0 4.98v5" stroke="#3a414a" fill="none"/><path d="M2157.22-1454.5h-.95v-.5h.95zM2157.22 1139h-.95v-.5h.95z" stroke="#3a414a" stroke-width=".05" fill="#3a414a"/><path d="M-764.63 1146a6 6 0 0 1 6-6h108a6 6 0 0 1 6 6v88a6 6 0 0 1-6 6h-108a6 6 0 0 1-6-6z" stroke="#ff80df" stroke-width="2" fill="#fff0fb"/><use xlink:href="#c" transform="matrix(1,0,0,1,-764.6251930273713,1140) translate(36.60993827160494 55.27777777777778)"/><path d="M-524.63-1550a6 6 0 0 1 6-6h276.67a6 6 0 0 1 6 6v88a6 6 0 0 1-6 6h-276.66a6 6 0 0 1-6-6z" stroke="#ff80df" stroke-width="2" fill="#fff0fb"/><use xlink:href="#d" transform="matrix(1,0,0,1,-524.6251930273713,-1556) translate(19.381543209876575 55.27777777777778)"/><path d="M-524.63 1146a6 6 0 0 1 6-6h276.67a6 6 0 0 1 6 6v88a6 6 0 0 1-6 6h-276.66a6 6 0 0 1-6-6z" stroke="#ff80df" stroke-width="2" fill="#fff0fb"/><use xlink:href="#d" transform="matrix(1,0,0,1,-524.6251930273713,1140) translate(19.381543209876575 55.27777777777778)"/><path d="M-115.96-1550a6 6 0 0 1 6-6h108a6 6 0 0 1 6 6v88a6 6 0 0 1-6 6h-108a6 6 0 0 1-6-6z" stroke="#ff80df" stroke-width="2" fill="#fff0fb"/><use xlink:href="#e" transform="matrix(1,0,0,1,-115.9585263607047,-1556) translate(19.974135802469135 55.27777777777778)"/><path d="M-115.96 1146a6 6 0 0 1 6-6h108a6 6 0 0 1 6 6v88a6 6 0 0 1-6 6h-108a6 6 0 0 1-6-6z" stroke="#ff80df" stroke-width="2" fill="#fff0fb"/><use xlink:href="#e" transform="matrix(1,0,0,1,-115.9585263607047,1140) translate(19.974135802469135 55.27777777777778)"/><path d="M124.04-1550a6 6 0 0 1 6-6h109.14a6 6 0 0 1 6 6v88a6 6 0 0 1-6 6H130.04a6 6 0 0 1-6-6z" stroke="#ff80df" stroke-width="2" fill="#fff0fb"/><use xlink:href="#f" transform="matrix(1,0,0,1,124.0414736392953,-1556) translate(19.146975308641977 55.27777777777778)"/><path d="M124.04 1146a6 6 0 0 1 6-6h109.14a6 6 0 0 1 6 6v88a6 6 0 0 1-6 6H130.04a6 6 0 0 1-6-6z" stroke="#ff80df" stroke-width="2" fill="#fff0fb"/><use xlink:href="#f" transform="matrix(1,0,0,1,124.04147363929519,1140) translate(19.146975308641977 55.27777777777778)"/><path d="M365.18-1550a6 6 0 0 1 6-6h108a6 6 0 0 1 6 6v88a6 6 0 0 1-6 6h-108a6 6 0 0 1-6-6z" stroke="#ff80df" stroke-width="2" fill="#fff0fb"/><use xlink:href="#g" transform="matrix(1,0,0,1,365.177276108431,-1556) translate(31.671666666666667 55.27777777777778)"/><path d="M365.18 1146a6 6 0 0 1 6-6h108a6 6 0 0 1 6 6v88a6 6 0 0 1-6 6h-108a6 6 0 0 1-6-6z" stroke="#ff80df" stroke-width="2" fill="#fff0fb"/><use xlink:href="#g" transform="matrix(1,0,0,1,365.177276108431,1140) translate(31.671666666666667 55.27777777777778)"/><path d="M605.18-1550a6 6 0 0 1 6-6h108a6 6 0 0 1 6 6v88a6 6 0 0 1-6 6h-108a6 6 0 0 1-6-6z" stroke="#ff80df" stroke-width="2" fill="#fff0fb"/><use xlink:href="#h" transform="matrix(1,0,0,1,605.177276108431,-1556) translate(26.085246913580242 55.27777777777778)"/><path d="M605.18 1146a6 6 0 0 1 6-6h108a6 6 0 0 1 6 6v88a6 6 0 0 1-6 6h-108a6 6 0 0 1-6-6z" stroke="#ff80df" stroke-width="2" fill="#fff0fb"/><use xlink:href="#h" transform="matrix(1,0,0,1,605.177276108431,1140) translate(26.085246913580242 55.27777777777778)"/><path d="M845.18-1550a6 6 0 0 1 6-6h139.75a6 6 0 0 1 6 6v88a6 6 0 0 1-6 6H851.18a6 6 0 0 1-6-6z" stroke="#ff80df" stroke-width="2" fill="#fff0fb"/><use xlink:href="#i" transform="matrix(1,0,0,1,845.177276108431,-1556) translate(19.33833333333333 55.27777777777778)"/><path d="M845.18 1146a6 6 0 0 1 6-6h139.75a6 6 0 0 1 6 6v88a6 6 0 0 1-6 6H851.18a6 6 0 0 1-6-6z" stroke="#ff80df" stroke-width="2" fill="#fff0fb"/><use xlink:href="#i" transform="matrix(1,0,0,1,845.1772761084309,1140) translate(19.33833333333333 55.27777777777778)"/><path d="M1116.93-1550a6 6 0 0 1 6-6h308.83a6 6 0 0 1 6 6v88a6 6 0 0 1-6 6h-308.83a6 6 0 0 1-6-6z" stroke="#ff80df" stroke-width="2" fill="#fff0fb"/><use xlink:href="#j" transform="matrix(1,0,0,1,1116.930362528184,-1556) translate(19.30129629629628 55.27777777777778)"/><path d="M1116.93 1146a6 6 0 0 1 6-6h308.83a6 6 0 0 1 6 6v88a6 6 0 0 1-6 6h-308.83a6 6 0 0 1-6-6z" stroke="#ff80df" stroke-width="2" fill="#fff0fb"/><use xlink:href="#j" transform="matrix(1,0,0,1,1116.9303625281843,1140) translate(19.30129629629628 55.27777777777778)"/><path d="M1557.76-1550a6 6 0 0 1 6-6h108a6 6 0 0 1 6 6v88a6 6 0 0 1-6 6h-108a6 6 0 0 1-6-6z" stroke="#ff80df" stroke-width="2" fill="#fff0fb"/><use xlink:href="#k" transform="matrix(1,0,0,1,1557.7575230220111,-1556) translate(31.02351851851852 55.27777777777778)"/><path d="M1557.76 1146a6 6 0 0 1 6-6h108a6 6 0 0 1 6 6v88a6 6 0 0 1-6 6h-108a6 6 0 0 1-6-6z" stroke="#ff80df" stroke-width="2" fill="#fff0fb"/><use xlink:href="#k" transform="matrix(1,0,0,1,1557.7575230220111,1140) translate(31.02351851851852 55.27777777777778)"/><path d="M1797.76-1550a6 6 0 0 1 6-6h145.92a6 6 0 0 1 6 6v88a6 6 0 0 1-6 6h-145.92a6 6 0 0 1-6-6z" stroke="#ff80df" stroke-width="2" fill="#fff0fb"/><use xlink:href="#l" transform="matrix(1,0,0,1,1797.7575230220111,-1556) translate(19.25191358024692 55.27777777777778)"/><path d="M1797.76 1146a6 6 0 0 1 6-6h145.92a6 6 0 0 1 6 6v88a6 6 0 0 1-6 6h-145.92a6 6 0 0 1-6-6z" stroke="#ff80df" stroke-width="2" fill="#fff0fb"/><use xlink:href="#l" transform="matrix(1,0,0,1,1797.7575230220111,1140) translate(19.25191358024692 55.27777777777778)"/><path d="M2075.68-1550a6 6 0 0 1 6-6h150.13a6 6 0 0 1 6 6v88a6 6 0 0 1-6 6H2081.7a6 6 0 0 1-6-6z" stroke="#ff80df" stroke-width="2" fill="#fff0fb"/><use xlink:href="#m" transform="matrix(1,0,0,1,2075.683448947937,-1556) translate(19.153148148148155 55.27777777777778)"/><path d="M2075.68 1146a6 6 0 0 1 6-6h150.13a6 6 0 0 1 6 6v88a6 6 0 0 1-6 6H2081.7a6 6 0 0 1-6-6z" stroke="#ff80df" stroke-width="2" fill="#fff0fb"/><use xlink:href="#m" transform="matrix(1,0,0,1,2075.6834489479374,1140) translate(19.153148148148155 55.27777777777778)"/><path d="M-704.13-1377.18h307.45M-704.1-1377.18h-.52" stroke="#3a414a" fill="none"/><path d="M-381.9-1377.18l-14.28 4.63v-9.27z" stroke="#3a414a" fill="#3a414a"/><use xlink:href="#n" transform="matrix(1,0,0,1,-605.4989692938873,-1402.5061796132609) translate(0 14.217421742174219)"/><use xlink:href="#o" transform="matrix(1,0,0,1,-605.4989692938873,-1402.5061796132609) translate(62.05312197886456 14.217421742174219)"/><path d="M-379.8-1299.36h307.46M-379.78-1299.36h-.5" stroke="#3a414a" fill="none"/><path d="M-57.58-1299.36l-14.26 4.63v-9.26z" stroke="#3a414a" fill="#3a414a"/><use xlink:href="#p" transform="matrix(1,0,0,1,-306.83598077281215,-1324.686176613261) translate(0 14.217421742174219)"/><use xlink:href="#q" transform="matrix(1,0,0,1,-306.83598077281215,-1324.686176613261) translate(58.153204209309834 14.217421742174219)"/><use xlink:href="#r" transform="matrix(1,0,0,1,-306.83598077281215,-1324.686176613261) translate(130.1782678267827 14.217421742174219)"/><path d="M-460-1334a6 6 0 0 1 6-6h95.77a6 6 0 0 1 6 6v8.22a14.48 14.48 0 0 1-4.24 10.24l-1.5 1.5a14.48 14.48 0 0 1-10.26 4.26H-454a6 6 0 0 1-6-6z" fill="#fff"/><path d="M-352.23-1340v20.22l-10 10H-460" stroke="#3a414a" stroke-width="2" fill="none"/><path d="M-460-1334a6 6 0 0 1 6-6h693.18a6 6 0 0 1 6 6v352a6 6 0 0 1-6 6H-454a6 6 0 0 1-6-6zM-460-1190.12h20m15 0h20m15 0h20m15 0h20m15 0h20m15 0h20m15 0h20m15 0h20m15 0h20m15 0h20m15 0h20m15 0h20m15 0h20m15 0h20m15 0h20m15 0h20m15 0h20m15 0h20m15 0h20m15 0h20m15 0h5.18" stroke="#3a414a" stroke-width="2" fill="none"/><use xlink:href="#s" transform="matrix(1,0,0,1,-452,-1340) translate(0 19.054355435543556)"/><use xlink:href="#t" transform="matrix(1,0,0,1,-448,-1301.782578257826) translate(0 19.054355435543556)"/><use xlink:href="#u" transform="matrix(1,0,0,1,-448,-1301.782578257826) translate(57.21524930270806 19.054355435543556)"/><use xlink:href="#v" transform="matrix(1,0,0,1,-448,-1301.782578257826) translate(75.9249813870276 19.054355435543556)"/><use xlink:href="#t" transform="matrix(1,0,0,1,-448,-1182.1176470588234) translate(0 19.054355435543556)"/><use xlink:href="#w" transform="matrix(1,0,0,1,-448,-1182.1176470588234) translate(57.21524930270806 19.054355435543556)"/><use xlink:href="#u" transform="matrix(1,0,0,1,-448,-1182.1176470588234) translate(86.83487793223769 19.054355435543556)"/><use xlink:href="#v" transform="matrix(1,0,0,1,-448,-1182.1176470588234) translate(105.54461001655723 19.054355435543556)"/><path d="M-379.8-1117.78h307.46M-379.78-1117.78h-.5" stroke="#3a414a" fill="none"/><path d="M-57.58-1117.78l-14.26 4.63v-9.26z" stroke="#3a414a" fill="#3a414a"/><use xlink:href="#x" transform="matrix(1,0,0,1,-260.48126196759847,-1143.106169613261) translate(0 14.217421742174219)"/><use xlink:href="#y" transform="matrix(1,0,0,1,-260.48126196759847,-1143.106169613261) translate(37.468830216354974 14.217421742174219)"/><path d="M-359.5-1014.02h527.73M-359.5-1014.02h-.5" stroke="#3a414a" fill="none"/><path d="M183-1014.02l-14.28 4.63v-9.25z" stroke="#3a414a" fill="#3a414a"/><use xlink:href="#z" transform="matrix(1,0,0,1,-137.40692261296226,-1039.3461656132613) translate(0 14.217421742174219)"/><use xlink:href="#y" transform="matrix(1,0,0,1,-137.40692261296226,-1039.3461656132613) translate(52.17991243568802 14.217421742174219)"/><path d="M184.1-936.2h-4.93m-4.93 0h-9.88m-4.94 0h-9.87m-4.94 0h-9.86m-4.94 0h-9.87m-4.94 0h-9.88m-4.94 0H90.3m-4.93 0H75.5m-4.94 0h-9.88m-4.94 0h-9.87m-4.94 0h-9.87m-4.94 0h-9.87m-4.94 0H1.45m-4.94 0h-9.87m-4.94 0h-9.9m-4.92 0H-43m-4.93 0h-9.88m-4.95 0h-9.87m-4.94 0h-9.87m-4.94 0h-9.87m-4.94 0h-9.87m-4.94 0h-9.87m-4.93 0h-9.88m-4.93 0h-9.9m-4.92 0h-9.88m-4.94 0h-9.87m-4.95 0h-9.87m-4.94 0h-9.87m-4.94 0h-9.87m-4.94 0h-9.88m-4.93 0h-9.87m-4.93 0h-9.88m-4.93 0h-9.9m-4.93 0h-9.87m-4.94 0h-9.87m-4.95 0h-9.87m-4.94 0h-9.87m-4.94 0h-4.94M184.1-936.2h.5" stroke="#3a414a" fill="none"/><path d="M-378.67-936.2l14.26-4.63v9.26z" stroke="#3a414a" fill="#3a414a"/><use xlink:href="#A" transform="matrix(1,0,0,1,-152.46477420771157,-961.5261626132611) translate(0 14.217421742174219)"/><use xlink:href="#y" transform="matrix(1,0,0,1,-152.46477420771157,-961.5261626132611) translate(62.003755931148675 14.217421742174219)"/><path d="M-379.8-858.38h307.46M-379.78-858.38h-.5" stroke="#3a414a" fill="none"/><path d="M-57.58-858.38l-14.26 4.63V-863z" stroke="#3a414a" fill="#3a414a"/><use xlink:href="#B" transform="matrix(1,0,0,1,-264.948889285886,-883.7061596132611) translate(0 14.217421742174219)"/><use xlink:href="#y" transform="matrix(1,0,0,1,-264.948889285886,-883.7061596132611) translate(46.40408485292975 14.217421742174219)"/><path d="M-379.8-754.62h788.6M-379.78-754.62h-.5" stroke="#3a414a" fill="none"/><path d="M423.56-754.62L409.3-750v-9.25z" stroke="#3a414a" fill="#3a414a"/><use xlink:href="#p" transform="matrix(1,0,0,1,-97.7883010048358,-779.946155613261) translate(0 14.217421742174219)"/><use xlink:href="#C" transform="matrix(1,0,0,1,-97.7883010048358,-779.946155613261) translate(58.153204209309834 14.217421742174219)"/><use xlink:href="#D" transform="matrix(1,0,0,1,-97.7883010048358,-779.946155613261) translate(161.62444022179997 14.217421742174219)"/><path d="M-420.3-890a6 6 0 0 1 6-6h95.78a6 6 0 0 1 6 6v8.22a14.48 14.48 0 0 1-4.24 10.24l-1.5 1.5a14.48 14.48 0 0 1-10.26 4.26h-85.77a6 6 0 0 1-6-6z" fill="#fff"/><path d="M-312.52-896v20.22l-10 10h-97.77" stroke="#3a414a" stroke-width="2" fill="none"/><path d="M-420.3-890a6 6 0 0 1 6-6H955.06a6 6 0 0 1 6 6v388a6 6 0 0 1-6 6H-414.3a6 6 0 0 1-6-6zM-420.3-756h20m15 0h20m15 0h20m15 0h20m15 0h20m15 0h20m15 0h20m15 0h20m15 0h20m15 0h20m15 0h20m15 0h20m15 0h20m15 0h20m15 0h20m15 0h20m15 0h20m15 0h20m15 0h20m15 0h20m15 0h20m15 0h20m15 0h20m15 0h20m15 0h20m15 0h20m15 0h20m15 0h20m15 0h20m15 0h20m15 0h20m15 0h20m15 0h20m15 0h20m15 0h20m15 0h20m15 0h20m15 0h20m15 0h20m15 0h16.35" stroke="#3a414a" stroke-width="2" fill="none"/><use xlink:href="#s" transform="matrix(1,0,0,1,-412.291859694038,-896) translate(0 19.054355435543556)"/><use xlink:href="#E" transform="matrix(1,0,0,1,-408.291859694038,-857.7825782578258) translate(0 19.054355435543556)"/><use xlink:href="#F" transform="matrix(1,0,0,1,-408.291859694038,-857.7825782578258) translate(55.19124134635687 19.054355435543556)"/><use xlink:href="#E" transform="matrix(1,0,0,1,-408.291859694038,-748) translate(0 19.054355435543556)"/><use xlink:href="#G" transform="matrix(1,0,0,1,-408.291859694038,-748) translate(55.19124134635687 19.054355435543556)"/><path d="M424.68-573.04h-4.96m-4.96 0h-9.92m-4.96 0h-9.92m-4.96 0h-9.92m-4.96 0h-9.92m-4.96 0h-9.92m-4.96 0h-9.92m-4.96 0h-9.92m-4.95 0h-9.9m-4.97 0h-9.92m-4.95 0h-9.92m-4.96 0h-9.92m-4.96 0h-9.93m-4.96 0h-9.9m-4.97 0h-9.92m-4.95 0h-9.92m-4.96 0h-9.92m-4.96 0h-9.92m-4.96 0h-9.92m-4.96 0h-9.92m-4.96 0h-9.92m-4.96 0h-9.92m-4.96 0h-9.92m-4.96 0H77.5m-4.96 0h-9.92m-4.96 0h-9.92m-4.96 0h-9.92m-4.95 0H18m-4.97 0H3.1m-4.95 0h-9.92m-4.96 0h-9.92m-4.96 0h-9.93m-4.96 0h-9.9m-4.97 0h-9.92m-4.95 0h-9.92m-4.96 0h-9.92m-4.96 0h-9.92m-4.97 0h-9.9m-4.96 0h-9.92m-4.96 0h-9.92m-4.96 0h-9.92m-4.96 0h-9.92m-4.96 0h-9.92m-4.96 0h-9.92m-4.96 0h-9.92m-4.96 0h-9.92m-4.96 0h-9.9m-4.98 0h-9.9m-4.97 0h-9.92m-4.96 0h-9.92m-4.96 0h-9.93m-4.96 0h-9.9m-4.97 0H-354m-4.95 0h-4.96M424.66-573.04h.52" stroke="#3a414a" fill="none"/><path d="M-378.67-573.04l14.26-4.63v9.26z" stroke="#3a414a" fill="#3a414a"/><use xlink:href="#A" transform="matrix(1,0,0,1,-26.77524136553859,-598.366148613261) translate(0 14.217421742174219)"/><use xlink:href="#H" transform="matrix(1,0,0,1,-26.77524136553859,-598.366148613261) translate(62.003755931148675 14.217421742174219)"/><path d="M-379.8-469.28H648.8M-379.78-469.28h-.5" stroke="#3a414a" fill="none"/><path d="M663.56-469.28l-14.27 4.63v-9.27z" stroke="#3a414a" fill="#3a414a"/><use xlink:href="#p" transform="matrix(1,0,0,1,95.15003449538088,-494.60614461326116) translate(0 14.217421742174219)"/><use xlink:href="#H" transform="matrix(1,0,0,1,95.15003449538088,-494.60614461326116) translate(58.153204209309834 14.217421742174219)"/><path d="M664.68-391.46h-4.97m-4.96 0h-9.94m-4.97 0h-9.94m-4.98 0H615m-4.98 0h-9.94m-4.97 0h-9.93m-4.97 0h-9.93m-4.97 0h-9.94m-4.97 0h-9.95m-4.97 0h-9.94m-4.96 0h-9.94m-4.97 0h-9.94m-4.97 0h-9.94m-4.96 0h-9.94m-4.97 0H451m-4.96 0h-9.94m-4.97 0h-9.93m-4.97 0h-9.94m-4.98 0h-9.94m-4.97 0h-9.92m-4.97 0h-9.93m-4.97 0h-9.94m-4.97 0h-9.95m-4.96 0h-9.95m-4.97 0h-9.94m-4.97 0h-9.94m-4.97 0h-9.94m-4.96 0h-9.94m-4.97 0h-9.94m-4.96 0h-9.94m-4.97 0h-9.93m-4.97 0h-9.94m-4.98 0h-9.94m-4.97 0h-9.92m-4.97 0h-9.93m-4.97 0h-9.94m-4.97 0h-9.94m-4.97 0h-9.95m-4.97 0h-9.94m-4.97 0h-9.94m-4.97 0h-9.93m-4.97 0h-9.94m-4.97 0H33.6m-4.96 0H18.7m-4.96 0H3.8m-4.97 0h-9.94m-4.98 0h-9.94m-4.96 0h-9.94m-4.97 0h-9.93m-4.97 0h-9.94m-4.97 0h-9.94m-4.97 0h-9.95m-4.97 0h-9.94m-4.97 0h-9.93m-4.97 0h-9.94m-4.97 0h-9.94m-4.97 0h-9.94m-4.96 0H-190m-4.96 0h-9.94m-4.97 0h-9.94m-4.98 0h-9.93m-4.98 0h-9.94m-4.97 0h-9.93m-4.97 0h-9.94m-4.96 0h-9.94m-4.97 0h-9.95m-4.97 0h-9.94m-4.96 0h-9.94m-4.97 0h-9.94m-4.97 0h-4.97M664.66-391.46h.52" stroke="#3a414a" fill="none"/><path d="M-378.67-391.46l14.26-4.64v9.28z" stroke="#3a414a" fill="#3a414a"/><use xlink:href="#A" transform="matrix(1,0,0,1,93.22475863446141,-416.78614161326124) translate(0 14.217421742174219)"/><use xlink:href="#H" transform="matrix(1,0,0,1,93.22475863446141,-416.78614161326124) translate(62.003755931148675 14.217421742174219)"/><path d="M-379.8-313.64H904.68M-379.78-313.64h-.5" stroke="#3a414a" fill="none"/><path d="M919.44-313.64L905.17-309v-9.27z" stroke="#3a414a" fill="#3a414a"/><use xlink:href="#z" transform="matrix(1,0,0,1,226.07495198713002,-338.96613861326125) translate(0 14.217421742174219)"/><use xlink:href="#H" transform="matrix(1,0,0,1,226.07495198713002,-338.96613861326125) translate(52.17991243568802 14.217421742174219)"/><path d="M920.55-235.82h-4.97m-4.98 0h-9.96m-4.98 0h-9.96m-4.97 0h-9.96m-4.98 0h-9.97m-4.98 0h-9.95m-4.98 0h-9.96m-4.98 0h-9.95m-4.98 0h-9.96m-5 0h-9.95m-4.97 0h-9.96m-4.98 0h-9.96m-4.98 0h-9.95m-4.98 0h-9.96m-4.97 0h-9.95m-4.98 0h-9.96m-4.98 0h-9.95m-4.97 0h-9.96m-4.98 0h-9.97m-4.97 0h-9.96m-4.98 0h-9.96m-4.98 0h-9.95m-4.98 0H587m-5 0h-9.94m-4.98 0h-9.96m-4.98 0h-9.96m-4.97 0h-9.95m-4.98 0h-9.96m-4.96 0h-9.96m-4.98 0h-9.96m-4.98 0h-9.95m-4.97 0h-9.96m-4.98 0h-9.96m-4.98 0h-9.96m-4.98 0h-9.96m-4.97 0h-9.97m-4.98 0h-9.96m-4.98 0h-9.96m-4.98 0h-9.96m-4.98 0h-9.95m-5 0h-9.95m-4.98 0h-9.95m-4.98 0h-9.96m-4.98 0h-9.96m-4.97 0h-9.96m-4.97 0h-9.96m-4.97 0h-9.96m-4.98 0h-9.96m-4.98 0h-9.95m-4.98 0h-9.97m-4.98 0h-9.96m-4.98 0h-9.96m-4.98 0h-9.96m-4.97 0h-9.96m-5 0h-9.95m-4.98 0h-9.95m-4.98 0h-9.96m-4.98 0h-9.95m-4.98 0H49.3m-4.97 0h-9.95m-4.98 0h-9.96m-4.98 0H4.5m-4.97 0h-9.96m-4.98 0h-9.97m-4.98 0h-9.95m-4.98 0h-9.96m-4.98 0h-9.95m-4.98 0h-9.96m-5 0h-9.95m-4.97 0h-9.96m-4.98 0h-9.96m-4.98 0h-9.95m-4.98 0h-9.96m-4.97 0h-9.95m-4.98 0h-9.96m-4.98 0h-9.96m-4.97 0h-9.96m-4.98 0h-9.97m-4.97 0h-9.96m-4.98 0h-9.96m-4.98 0h-9.95m-4.98 0h-9.96m-5 0h-9.94m-4.98 0h-9.96m-4.98 0H-339m-5 0h-9.95m-4.98 0h-4.98M920.54-235.82h.5" stroke="#3a414a" fill="none"/><path d="M-378.67-235.82l14.26-4.64v9.28z" stroke="#3a414a" fill="#3a414a"/><use xlink:href="#A" transform="matrix(1,0,0,1,221.16303023939952,-261.1461356132613) translate(0 14.217421742174219)"/><use xlink:href="#H" transform="matrix(1,0,0,1,221.16303023939952,-261.1461356132613) translate(62.003755931148675 14.217421742174219)"/><path d="M-379.8-132.06h788.6M-379.78-132.06h-.5" stroke="#3a414a" fill="none"/><path d="M423.56-132.06l-14.27 4.64v-9.27z" stroke="#3a414a" fill="#3a414a"/><use xlink:href="#p" transform="matrix(1,0,0,1,-168.11023597611143,-157.38613161326126) translate(0 14.217421742174219)"/><use xlink:href="#I" transform="matrix(1,0,0,1,-168.11023597611143,-157.38613161326126) translate(58.153204209309834 14.217421742174219)"/><use xlink:href="#D" transform="matrix(1,0,0,1,-168.11023597611143,-157.38613161326126) translate(302.2683101643497 14.217421742174219)"/><path d="M-420.3-410a6 6 0 0 1 6-6h95.78a6 6 0 0 1 6 6v8.22a14.48 14.48 0 0 1-4.24 10.24l-1.5 1.52a14.48 14.48 0 0 1-10.26 4.24h-85.77a6 6 0 0 1-6-6z" fill="#fff"/><path d="M-312.52-416v20.22l-10 10h-97.77" stroke="#3a414a" stroke-width="2" fill="none"/><path d="M-420.3-410a6 6 0 0 1 6-6h1725.64a6 6 0 0 1 6 6v388a6 6 0 0 1-6 6H-414.3a6 6 0 0 1-6-6zM-420.3-276h20m15 0h20m15 0h20m15 0h20m15 0h20m15 0h20m15 0h20m15 0h20m15 0h20m15 0h20m15 0h20m15 0h20m15 0h20m15 0h20m15 0h20m15 0h20m15 0h20m15 0h20m15 0h20m15 0h20m15 0h20m15 0h20m15 0h20m15 0h20m15 0h20m15 0h20m15 0h20m15 0h20m15 0h20m15 0h20m15 0h20m15 0h20m15 0h20m15 0h20m15 0h20m15 0h20m15 0h20m15 0h20m15 0h20m15 0h20m15 0h20m15 0h20m15 0h20m15 0h20m15 0h20m15 0h20m15 0h20m15 0h20m15 0h20m15 0h20" stroke="#3a414a" stroke-width="2" fill="none"/><use xlink:href="#s" transform="matrix(1,0,0,1,-412.291859694038,-416) translate(0 19.054355435543556)"/><use xlink:href="#E" transform="matrix(1,0,0,1,-408.291859694038,-377.7825782578258) translate(0 19.054355435543556)"/><use xlink:href="#F" transform="matrix(1,0,0,1,-408.291859694038,-377.7825782578258) translate(55.19124134635687 19.054355435543556)"/><use xlink:href="#E" transform="matrix(1,0,0,1,-408.291859694038,-268) translate(0 19.054355435543556)"/><use xlink:href="#G" transform="matrix(1,0,0,1,-408.291859694038,-268) translate(55.19124134635687 19.054355435543556)"/><path d="M424.68 49.52h-4.96m-4.96 0h-9.92m-4.96 0h-9.92m-4.96 0h-9.92m-4.96 0h-9.92m-4.96 0h-9.92m-4.96 0h-9.92m-4.96 0h-9.92m-4.95 0h-9.9m-4.97 0h-9.92m-4.95 0h-9.92m-4.96 0h-9.92m-4.96 0h-9.93m-4.96 0h-9.9m-4.97 0h-9.92m-4.95 0h-9.92m-4.96 0h-9.92m-4.96 0h-9.92m-4.96 0h-9.92m-4.96 0h-9.92m-4.96 0h-9.92m-4.96 0h-9.92m-4.96 0h-9.92m-4.96 0H77.5m-4.96 0h-9.92m-4.96 0h-9.92m-4.96 0h-9.92m-4.95 0H18m-4.97 0H3.1m-4.95 0h-9.92m-4.96 0h-9.92m-4.96 0h-9.93m-4.96 0h-9.9m-4.97 0h-9.92m-4.95 0h-9.92m-4.96 0h-9.92m-4.96 0h-9.92m-4.97 0h-9.9m-4.96 0h-9.92m-4.96 0h-9.92m-4.96 0h-9.92m-4.96 0h-9.92m-4.96 0h-9.92m-4.96 0h-9.92m-4.96 0h-9.92m-4.96 0h-9.92m-4.96 0h-9.9m-4.98 0h-9.9m-4.97 0h-9.92m-4.96 0h-9.92m-4.96 0h-9.93m-4.96 0h-9.9m-4.97 0H-354m-4.95 0h-4.96M424.66 49.52h.52" stroke="#3a414a" fill="none"/><path d="M-378.67 49.52l14.26-4.64v9.27z" stroke="#3a414a" fill="#3a414a"/><use xlink:href="#A" transform="matrix(1,0,0,1,-26.775241365538704,24.19387538673863) translate(0 14.217421742174219)"/><use xlink:href="#H" transform="matrix(1,0,0,1,-26.775241365538704,24.19387538673863) translate(62.003755931148675 14.217421742174219)"/><path d="M-379.8 153.28H648.8M-379.78 153.28h-.5" stroke="#3a414a" fill="none"/><path d="M663.56 153.28l-14.27 4.63v-9.25z" stroke="#3a414a" fill="#3a414a"/><use xlink:href="#p" transform="matrix(1,0,0,1,95.15003449538082,127.95387938673872) translate(0 14.217421742174219)"/><use xlink:href="#H" transform="matrix(1,0,0,1,95.15003449538082,127.95387938673872) translate(58.153204209309834 14.217421742174219)"/><path d="M664.68 231.1h-4.97m-4.96 0h-9.94m-4.97 0h-9.94m-4.98 0H615m-4.98 0h-9.94m-4.97 0h-9.93m-4.97 0h-9.93m-4.97 0h-9.94m-4.97 0h-9.95m-4.97 0h-9.94m-4.96 0h-9.94m-4.97 0h-9.94m-4.97 0h-9.94m-4.96 0h-9.94m-4.97 0H451m-4.96 0h-9.94m-4.97 0h-9.93m-4.97 0h-9.94m-4.98 0h-9.94m-4.97 0h-9.92m-4.97 0h-9.93m-4.97 0h-9.94m-4.97 0h-9.95m-4.96 0h-9.95m-4.97 0h-9.94m-4.97 0h-9.94m-4.97 0h-9.94m-4.96 0h-9.94m-4.97 0h-9.94m-4.96 0h-9.94m-4.97 0h-9.93m-4.97 0h-9.94m-4.98 0h-9.94m-4.97 0h-9.92m-4.97 0h-9.93m-4.97 0h-9.94m-4.97 0h-9.94m-4.97 0h-9.95m-4.97 0h-9.94m-4.97 0h-9.94m-4.97 0h-9.93m-4.97 0h-9.94m-4.97 0H33.6m-4.96 0H18.7m-4.96 0H3.8m-4.97 0h-9.94m-4.98 0h-9.94m-4.96 0h-9.94m-4.97 0h-9.93m-4.97 0h-9.94m-4.97 0h-9.94m-4.97 0h-9.95m-4.97 0h-9.94m-4.97 0h-9.93m-4.97 0h-9.94m-4.97 0h-9.94m-4.97 0h-9.94m-4.96 0H-190m-4.96 0h-9.94m-4.97 0h-9.94m-4.98 0h-9.93m-4.98 0h-9.94m-4.97 0h-9.93m-4.97 0h-9.94m-4.96 0h-9.94m-4.97 0h-9.95m-4.97 0h-9.94m-4.96 0h-9.94m-4.97 0h-9.94m-4.97 0h-4.97M664.66 231.1h.52" stroke="#3a414a" fill="none"/><path d="M-378.67 231.1l14.26-4.63v9.27z" stroke="#3a414a" fill="#3a414a"/><use xlink:href="#A" transform="matrix(1,0,0,1,93.22475863446141,205.77388238673876) translate(0 14.217421742174219)"/><use xlink:href="#H" transform="matrix(1,0,0,1,93.22475863446141,205.77388238673876) translate(62.003755931148675 14.217421742174219)"/><path d="M-400.5 300l1661.46 8.83" stroke="#3a414a" fill="none"/><path d="M-400.5 299.53v.95h-.5v-.96z" stroke="#3a414a" stroke-width=".05" fill="#3a414a"/><path d="M1275.73 308.9l-14.3 4.57.05-9.27z" stroke="#3a414a" fill="#3a414a"/><use xlink:href="#z" transform="matrix(1,0,0,1,1234.029398296381,283.59651990483604) translate(0 14.217421742174219)"/><use xlink:href="#H" transform="matrix(1,0,0,1,1234.029398296381,283.59651990483604) translate(52.17991243568802 14.217421742174219)"/><path d="M638.52 401l-4.98-.08m-5-.07l-9.96-.14m-5-.06l-9.97-.13m-4.97-.06l-9.98-.14m-5-.07l-9.96-.14m-5-.08l-9.97-.14m-5-.07l-9.96-.13m-5-.07l-9.96-.14m-4.98-.07l-9.98-.15m-4.98-.07l-9.98-.14m-5-.07l-9.96-.14m-5-.07l-9.96-.14m-5-.07l-9.96-.14m-5-.06l-9.96-.14m-5-.07l-9.97-.14m-4.98-.08l-10-.14m-4.98-.07l-9.97-.13m-5-.07l-9.96-.13m-5-.07l-9.97-.14m-5-.07l-9.97-.15m-4.98-.07l-9.98-.14m-4.98-.07l-9.98-.14m-5-.07l-9.96-.14m-5-.07l-9.96-.14m-5-.06l-9.96-.14m-5-.07l-9.96-.14m-5-.08l-9.97-.14m-4.98-.07l-9.98-.13m-5-.07l-9.96-.14m-4.98-.07l-9.97-.15m-5-.07l-9.96-.14m-5-.07l-9.97-.13m-5-.07l-9.97-.14m-4.98-.07l-9.98-.14m-5-.07l-9.96-.14m-5-.06l-9.96-.14m-5-.07l-9.96-.14m-5-.08l-9.97-.14m-4.98-.07l-9.98-.13m-5-.07l-9.97-.14m-5-.07l-9.96-.15m-5-.07l-9.96-.14m-4.98-.07l-9.97-.14m-5-.07l-9.97-.14m-4.98-.07l-9.98-.14m-4.98-.06l-9.98-.14m-5-.07l-9.96-.13m-5-.07l-9.96-.14m-5-.08l-9.96-.14m-5-.07l-9.97-.13m-4.97-.07l-9.98-.14m-4.98-.07l-9.98-.15m-5-.07l-9.97-.14m-5-.07l-9.96-.14m-5-.07l-9.97-.14m-4.98-.07l-9.98-.14m-4.98-.06l-9.98-.14m-5-.07l-9.96-.14m-5-.08l-9.96-.14m-5-.07l-9.96-.13m-5-.07l-9.97-.13m-4.98-.07l-9.98-.15m-4.98-.06l-10-.15m-4.98-.07l-9.97-.14m-5-.07l-9.96-.14m-5-.07l-9.97-.14m-5-.07l-9.96-.14m-5-.06l-4.98-.07" stroke="#3a414a" fill="none"/><path d="M642.02 401.52l-3.5-.05V401h3.5z" stroke="#3a414a" stroke-width=".05" fill="#3a414a"/><path d="M-378.67 386.76l14.32-4.43-.12 9.27z" stroke="#3a414a" fill="#3a414a"/><use xlink:href="#A" transform="matrix(1,0,0,1,-426.3909059611509,361.43568841227386) translate(0 14.217421742174219)"/><use xlink:href="#H" transform="matrix(1,0,0,1,-426.3909059611509,361.43568841227386) translate(62.003755931148675 14.217421742174219)"/><path d="M-400 206a6 6 0 0 1 6-6h95.77a6 6 0 0 1 6 6v8.22a14.48 14.48 0 0 1-4.24 10.24l-1.5 1.5a14.48 14.48 0 0 1-10.26 4.26H-394a6 6 0 0 1-6-6z" fill="#fff"/><path d="M-292.23 200v20.22l-10 10H-400" stroke="#3a414a" stroke-width="2" fill="none"/><path d="M-400 206a6 6 0 0 1 6-6h2066.05a6 6 0 0 1 6 6v188a6 6 0 0 1-6 6H-394a6 6 0 0 1-6-6z" stroke="#3a414a" stroke-width="2" fill="none"/><g><use xlink:href="#s" transform="matrix(1,0,0,1,-392,200) translate(0 19.054355435543556)"/></g><g><use xlink:href="#J" transform="matrix(1,0,0,1,-388,238.21742174217422) translate(0 19.054355435543556)"/><use xlink:href="#K" transform="matrix(1,0,0,1,-388,238.21742174217422) translate(60.177212165661025 19.054355435543556)"/><use xlink:href="#L" transform="matrix(1,0,0,1,-388,238.21742174217422) translate(111.12297340845197 19.054355435543556)"/><use xlink:href="#M" transform="matrix(1,0,0,1,-388,238.21742174217422) translate(124.89610072118325 19.054355435543556)"/></g><path d="M-379.8 594.26h1981.17M-379.78 594.26h-.5" stroke="#3a414a" fill="none"/><path d="M1616.14 594.26l-14.27 4.63v-9.27z" stroke="#3a414a" fill="#3a414a"/><g><use xlink:href="#z" transform="matrix(1,0,0,1,574.4268038389819,568.9338963867388) translate(0 14.217421742174219)"/><use xlink:href="#H" transform="matrix(1,0,0,1,574.4268038389819,568.9338963867388) translate(52.17991243568802 14.217421742174219)"/></g><path d="M1617.26 672.08h-5m-5 0h-10m-5.02 0h-10m-5 0h-10m-5.02 0h-10m-5 0h-10m-5 0h-10.02m-5 0h-10m-5 0h-10.02m-5 0h-10m-5 0h-10m-5.02 0h-10m-5 0h-10m-5 0h-10.02m-5 0h-10m-5 0h-10.02m-5 0h-10m-5 0h-10.02m-5 0h-10m-5 0h-10m-5.02 0h-10m-5 0h-10m-5 0h-10.02m-5 0h-10m-5 0h-10.02m-5 0h-10m-5 0h-10m-5.02 0h-10m-5 0h-10m-5.02 0h-10m-5 0h-10m-5 0h-10.02m-5 0h-10m-5 0h-10.02m-5 0h-10m-5 0h-10m-5.02 0h-10m-5 0h-10m-5.02 0h-10m-5 0h-10m-5 0h-10.02m-5 0h-10m-5 0h-10.02m-5 0h-10m-5 0h-10m-5.02 0h-10m-5 0h-10m-5 0h-10.02m-5 0h-10m-5 0H876.8m-5 0h-10m-5 0H846.8m-5 0h-10m-5 0h-10m-5.02 0h-10m-5 0h-10m-5 0h-10.02m-5 0h-10m-5 0h-10.02m-5 0h-10m-5 0h-10m-5.02 0h-10m-5 0h-10m-5.02 0h-10m-5 0h-10m-5 0h-10.02m-5 0h-10m-5 0h-10.02m-5 0h-10m-5 0h-10m-5.02 0h-10m-5 0h-10m-5 0H531.6m-5 0h-10m-5 0H501.6m-5 0h-10m-5 0h-10.02m-5 0h-10m-5 0h-10m-5.02 0h-10m-5 0h-10m-5 0h-10.02m-5 0h-10m-5 0H366.5m-5 0h-10m-5 0H336.5m-5 0h-10m-5 0h-10m-5.02 0h-10m-5 0h-10m-5 0h-10.02m-5 0h-10m-5 0h-10.02m-5 0h-10m-5 0h-10m-5.02 0h-10m-5 0h-10m-5.02 0h-10m-5 0h-10m-5 0h-10.02m-5 0h-10m-5 0H96.35m-5 0h-10m-5 0H66.33m-5 0h-10m-5 0h-10m-5.02 0h-10m-5 0h-10m-5 0H-8.7m-5 0h-10m-5 0h-10.02m-5 0h-10m-5 0h-10m-5.02 0h-10m-5 0h-10m-5.02 0h-10m-5 0h-10m-5 0h-10.02m-5 0h-10m-5 0h-10.02m-5 0h-10m-5 0h-10m-5.02 0h-10m-5 0h-10m-5 0h-10.02m-5 0h-10m-5 0h-10.02m-5 0h-10m-5 0h-10.02m-5 0h-10m-5 0h-10m-5.02 0h-10m-5 0h-5M1617.24 672.08h.52" stroke="#3a414a" fill="none"/><path d="M-378.67 672.08l14.26-4.63v9.26z" stroke="#3a414a" fill="#3a414a"/><g><use xlink:href="#A" transform="matrix(1,0,0,1,569.5148820912515,646.7538993867385) translate(0 14.217421742174219)"/><use xlink:href="#H" transform="matrix(1,0,0,1,569.5148820912515,646.7538993867385) translate(62.003755931148675 14.217421742174219)"/></g><path d="M-379.8 775.84h2240.14M-379.78 775.84h-.5" stroke="#3a414a" fill="none"/><path d="M1875.1 775.84l-14.26 4.63v-9.26z" stroke="#3a414a" fill="#3a414a"/><g><use xlink:href="#z" transform="matrix(1,0,0,1,668.9324405137602,750.5139033867387) translate(0 14.217421742174219)"/><use xlink:href="#N" transform="matrix(1,0,0,1,668.9324405137602,750.5139033867387) translate(52.17991243568802 14.217421742174219)"/><use xlink:href="#O" transform="matrix(1,0,0,1,668.9324405137602,750.5139033867387) translate(122.1316020490938 14.217421742174219)"/></g><path d="M1876.22 853.66h-5m-5.02 0h-10.03m-5 0h-10.03m-5 0h-10.03m-5 0h-10.03m-5 0h-10.03m-5 0H1781m-5 0h-10.03m-5 0h-10.04m-5 0h-10.03m-5 0h-10.04m-5 0h-10.03m-5 0h-10.03m-5 0h-10.04m-5 0h-10.03m-5 0h-10.04m-5.02 0h-10.02m-5 0h-10.04m-5 0h-10.03m-5.02 0h-10.02m-5.02 0h-10.02m-5 0h-10.03m-5.03 0h-10.02m-5 0h-10.03m-5 0h-10.04m-5 0h-10.03m-5 0h-10.04m-5 0h-10.02m-5 0h-10.04m-5 0h-10.03m-5 0h-10.02m-5.02 0h-10.02m-5 0h-10.03m-5 0h-10.03m-5 0h-10.03m-5 0H1345m-5 0h-10.03m-5 0h-10.03m-5.02 0h-10.02m-5 0h-10.03m-5 0h-10.04m-5 0h-10.03m-5 0h-10.04m-5 0h-10.03m-5 0h-10.04m-5.02 0h-10.02m-5 0h-10.03m-5.02 0h-10m-5.02 0h-10.02m-5 0h-10.04m-5 0h-10.03m-5.02 0h-10.03m-5 0h-10.03m-5 0h-10.04m-5 0h-10.03m-5 0h-10.03m-5.02 0h-10.02m-5 0h-10.03m-5 0H999.2m-5 0h-10.02m-5 0h-10.04m-5 0H954.1m-5 0h-10.02m-5.02 0h-10.02m-5 0H909m-5 0h-10.03m-5 0h-10.03m-5 0H863.9m-5 0h-10.03m-5 0h-10.04m-5 0H818.8m-5 0h-10.03m-5.02 0h-10.02m-5 0H773.7m-5.02 0h-10.02m-5 0h-10.03m-5 0h-10.04m-5.02 0h-10.02m-5 0H698.5m-5 0h-10.03m-5.02 0h-10.02m-5.02 0h-10.02m-5 0h-10.03m-5.02 0h-10.03m-5 0H608.3m-5 0h-10.04m-5 0h-10.03m-5 0H563.2m-5.02 0h-10.02m-5 0h-10.03m-5.02 0H518.1m-5 0h-10.02m-5 0h-10.04m-5 0H473m-5 0h-10.03m-5 0h-10.03m-5 0H427.9m-5 0h-10.03m-5 0h-10.03m-5.02 0H382.8m-5 0h-10.03m-5 0h-10.04m-5 0H337.7m-5 0h-10.04m-5 0h-10.03m-5 0H292.6m-5.02 0h-10.02m-5 0h-10.03m-5 0h-10.04m-5.02 0h-10.02m-5 0H217.4m-5 0h-10.03m-5.02 0h-10.03m-5 0H172.3m-5 0h-10.03m-5.03 0h-10.02m-5 0H127.2m-5.02 0h-10.02m-5 0H97.14m-5 0H82.1m-5 0H67.08m-5 0H52.03m-5 0H37m-5 0H21.98m-5.02 0H6.94m-5 0H-8.1m-5 0h-10.03m-5 0h-10.03m-5 0H-53.2m-5 0h-10.03m-5 0h-10.03m-5.02 0H-98.3m-5 0h-10.03m-5.02 0h-10.02m-5 0h-10.03m-5 0h-10.04m-5 0h-10.03m-5 0h-10.04m-5.02 0h-10.02m-5 0h-10.03m-5.02 0h-10m-5.02 0h-10.02m-5.02 0h-10.02m-5 0h-10.03m-5.02 0h-10.03m-5 0h-10.03m-5 0h-10.04m-5 0h-10.03m-5 0h-10.03m-5.02 0h-5M1876.2 853.66h.52" stroke="#3a414a" fill="none"/><path d="M-378.67 853.66l14.26-4.63v9.26z" stroke="#3a414a" fill="#3a414a"/><g><use xlink:href="#A" transform="matrix(1,0,0,1,698.9963635727331,828.3339063867389) translate(0 14.217421742174219)"/><use xlink:href="#H" transform="matrix(1,0,0,1,698.9963635727331,828.3339063867389) translate(62.003755931148675 14.217421742174219)"/></g><path d="M-379.8 931.48h2520.16M-379.78 931.48h-.5" stroke="#3a414a" fill="none"/><path d="M2155.13 931.48l-14.27 4.63v-9.25z" stroke="#3a414a" fill="#3a414a"/><g><use xlink:href="#z" transform="matrix(1,0,0,1,825.7045593923152,906.1539093867387) translate(0 14.217421742174219)"/><use xlink:href="#P" transform="matrix(1,0,0,1,825.7045593923152,906.1539093867387) translate(52.17991243568802 14.217421742174219)"/><use xlink:href="#Q" transform="matrix(1,0,0,1,825.7045593923152,906.1539093867387) translate(83.67545087842117 14.217421742174219)"/></g><path d="M2156.24 1009.3h-5m-5 0h-10m-5 0h-10m-5 0h-10m-5 0h-10m-5 0h-10m-5 0h-10m-5 0h-10m-5 0h-10m-5 0h-10m-5 0h-10m-5 0h-10m-5 0h-10m-5 0h-10m-5 0h-10m-5 0h-10m-5 0h-10m-5 0h-10m-5 0h-10m-5 0h-10m-5 0h-10m-5 0h-10m-5.02 0h-10m-5 0h-10m-5 0h-10m-5 0h-10m-5 0h-10m-5 0h-10m-5 0h-10m-5 0h-10m-5 0h-10m-5 0h-10m-5 0h-10m-5 0h-10m-5 0h-10m-5 0h-10m-5 0h-10m-5 0h-10m-5 0h-10m-5 0h-10m-5 0h-10m-5 0h-10m-5 0h-10m-5 0h-10m-5.02 0h-10m-5 0h-10m-5 0h-10m-5 0h-10m-5 0h-10m-5 0h-10m-5 0h-10m-5 0h-10m-5 0h-10m-5 0h-10m-5 0h-10m-5 0h-10m-5 0h-10m-5 0h-10m-5 0h-10m-5 0h-10m-5 0h-10m-5 0h-10m-5 0h-10m-5 0h-10m-5 0h-10m-5 0h-10m-5.02 0h-10m-5 0h-10m-5 0h-10m-5 0h-10m-5 0h-10m-5 0h-10m-5 0h-10m-5 0h-10m-5 0h-10m-5 0h-10m-5 0h-10m-5 0h-10m-5 0h-10m-5 0h-10m-5 0h-10m-5 0h-10m-5 0h-10m-5 0h-10m-5 0h-10m-5 0h-10m-5 0h-10m-5 0h-10m-5 0h-10m-5.02 0h-10m-5 0h-10m-5 0h-10m-5 0h-10m-5 0h-10m-5 0h-10m-5 0h-10m-5 0h-10m-5 0h-10m-5 0h-10m-5 0h-10m-5 0h-10m-5 0h-10m-5 0h-10m-5 0h-10m-5 0h-10m-5 0h-10m-5 0h-10m-5 0h-10m-5 0h-10m-5 0h-10m-5 0h-10.02m-5 0h-10m-5 0h-10m-5 0h-10m-5 0h-10m-5 0h-10m-5 0h-10m-5 0h-10m-5 0h-10m-5 0h-10m-5 0h-10m-5 0h-10m-5 0h-10m-5 0h-10m-5 0h-10m-5 0h-10m-5 0h-10m-5 0h-10m-5 0h-10m-5 0h-10m-5 0h-10m-5 0h-10m-5 0h-10m-5.02 0h-10m-5 0h-10m-5 0h-10m-5 0h-10m-5 0h-10m-5 0h-10m-5 0h-10m-5 0h-10m-5 0h-10m-5 0h-10m-5 0h-10m-5 0h-10m-5 0h-10m-5 0h-10m-5 0h-10m-5 0h-10m-5 0h-10m-5 0h-10m-5 0h-10m-5 0h-10m-5 0h-10.02m-5 0h-10m-5 0h-10m-5 0h-10m-5 0h-10m-5 0h-10m-5 0h-10m-5 0h-10m-5 0h-10m-5 0h-10m-5 0h-10m-5 0h-10m-5 0h-10m-5 0h-10m-5 0h-10m-5 0h-5M2156.23 1009.3h.5" stroke="#3a414a" fill="none"/><path d="M-378.67 1009.3l14.26-4.63v9.26z" stroke="#3a414a" fill="#3a414a"/><g><use xlink:href="#A" transform="matrix(1,0,0,1,839.0087092517456,983.9739123867386) translate(0 14.217421742174219)"/><use xlink:href="#H" transform="matrix(1,0,0,1,839.0087092517456,983.9739123867386) translate(62.003755931148675 14.217421742174219)"/></g><path d="M-380.8 1087.12h-5.12m-5.12 0h-10.25m-5.1 0h-10.26m-5.13 0h-10.23m-5.13 0h-10.25m-5.13 0h-10.25m-5.12 0h-10.25m-5.13 0h-10.24m-5.13 0h-10.25m-5.12 0h-10.25m-5.12 0h-10.24m-5.13 0H-555m-5.14 0h-10.25m-5.1 0h-10.26m-5.12 0h-10.25m-5.13 0h-10.24m-5.13 0h-10.25m-5.12 0h-10.25m-5.12 0h-10.25m-5.13 0H-678m-5.12 0h-5.12M-380.8 1087.12h.5" stroke="#3a414a" fill="none"/><path d="M-703 1087.12l14.26-4.63v9.26z" stroke="#3a414a" fill="#3a414a"/><g><use xlink:href="#A" transform="matrix(1,0,0,1,-638.9938326691114,1061.7939153867387) translate(0 14.217421742174219)"/><use xlink:href="#R" transform="matrix(1,0,0,1,-638.9938326691114,1061.7939153867387) translate(62.003755931148675 14.217421742174219)"/><use xlink:href="#S" transform="matrix(1,0,0,1,-638.9938326691114,1061.7939153867387) translate(144.79061795068395 14.217421742174219)"/></g><defs><path d="M205 0l-28-72H64L36 0H1l101-248h38L239 0h-34zm-38-99l-47-123c-12 45-31 82-46 123h93" id="T"/><path d="M85-194c31 0 48 13 60 33l-1-100h32l1 261h-30c-2-10 0-23-3-31C134-8 116 4 85 4 32 4 16-35 15-94c0-66 23-100 70-100zm9 24c-40 0-46 34-46 75 0 40 6 74 45 74 42 0 51-32 51-76 0-42-9-74-50-73" id="U"/><path d="M108 0H70L1-190h34L89-25l56-165h34" id="V"/><path d="M24-231v-30h32v30H24zM24 0v-190h32V0H24" id="W"/><path d="M135-143c-3-34-86-38-87 0 15 53 115 12 119 90S17 21 10-45l28-5c4 36 97 45 98 0-10-56-113-15-118-90-4-57 82-63 122-42 12 7 21 19 24 35" id="X"/><path d="M100-194c62-1 85 37 85 99 1 63-27 99-86 99S16-35 15-95c0-66 28-99 85-99zM99-20c44 1 53-31 53-75 0-43-8-75-51-75s-53 32-53 75 10 74 51 75" id="Y"/><path d="M114-163C36-179 61-72 57 0H25l-1-190h30c1 12-1 29 2 39 6-27 23-49 58-41v29" id="Z"/><g id="a"><use transform="matrix(0.06172839506172839,0,0,0.06172839506172839,0,0)" xlink:href="#T"/><use transform="matrix(0.06172839506172839,0,0,0.06172839506172839,14.814814814814813,0)" xlink:href="#U"/><use transform="matrix(0.06172839506172839,0,0,0.06172839506172839,27.160493827160494,0)" xlink:href="#V"/><use transform="matrix(0.06172839506172839,0,0,0.06172839506172839,38.27160493827161,0)" xlink:href="#W"/><use transform="matrix(0.06172839506172839,0,0,0.06172839506172839,43.14814814814815,0)" xlink:href="#X"/><use transform="matrix(0.06172839506172839,0,0,0.06172839506172839,54.25925925925927,0)" xlink:href="#Y"/><use transform="matrix(0.06172839506172839,0,0,0.06172839506172839,66.60493827160495,0)" xlink:href="#Z"/></g><path d="M143 4C61 4 22-44 18-125c-5-107 100-154 193-111 17 8 29 25 37 43l-32 9c-13-25-37-40-76-40-61 0-88 39-88 99 0 61 29 100 91 101 35 0 62-11 79-27v-45h-74v-28h105v86C228-13 192 4 143 4" id="aa"/><path d="M141-36C126-15 110 5 73 4 37 3 15-17 15-53c-1-64 63-63 125-63 3-35-9-54-41-54-24 1-41 7-42 31l-33-3c5-37 33-52 76-52 45 0 72 20 72 64v82c-1 20 7 32 28 27v20c-31 9-61-2-59-35zM48-53c0 20 12 33 32 33 41-3 63-29 60-74-43 2-92-5-92 41" id="ab"/><path d="M59-47c-2 24 18 29 38 22v24C64 9 27 4 27-40v-127H5v-23h24l9-43h21v43h35v23H59v120" id="ac"/><path d="M206 0h-36l-40-164L89 0H53L-1-190h32L70-26l43-164h34l41 164 42-164h31" id="ad"/><path d="M179-190L93 31C79 59 56 82 12 73V49c39 6 53-20 64-50L1-190h34L92-34l54-156h33" id="ae"/><g id="b"><use transform="matrix(0.06172839506172839,0,0,0.06172839506172839,0,0)" xlink:href="#aa"/><use transform="matrix(0.06172839506172839,0,0,0.06172839506172839,17.28395061728395,0)" xlink:href="#ab"/><use transform="matrix(0.06172839506172839,0,0,0.06172839506172839,29.629629629629626,0)" xlink:href="#ac"/><use transform="matrix(0.06172839506172839,0,0,0.06172839506172839,35.80246913580247,0)" xlink:href="#ad"/><use transform="matrix(0.06172839506172839,0,0,0.06172839506172839,51.79012345679012,0)" xlink:href="#ab"/><use transform="matrix(0.06172839506172839,0,0,0.06172839506172839,64.1358024691358,0)" xlink:href="#ae"/></g><path d="M232-93c-1 65-40 97-104 97C67 4 28-28 28-90v-158h33c8 89-33 224 67 224 102 0 64-133 71-224h33v155" id="af"/><path d="M100-194c63 0 86 42 84 106H49c0 40 14 67 53 68 26 1 43-12 49-29l28 8c-11 28-37 45-77 45C44 4 14-33 15-96c1-61 26-98 85-98zm52 81c6-60-76-77-97-28-3 7-6 17-6 28h103" id="ag"/><g id="c"><use transform="matrix(0.06172839506172839,0,0,0.06172839506172839,0,0)" xlink:href="#af"/><use transform="matrix(0.06172839506172839,0,0,0.06172839506172839,15.987654320987653,0)" xlink:href="#X"/><use transform="matrix(0.06172839506172839,0,0,0.06172839506172839,27.098765432098766,0)" xlink:href="#ag"/><use transform="matrix(0.06172839506172839,0,0,0.06172839506172839,39.44444444444444,0)" xlink:href="#Z"/></g><path d="M177-190C167-65 218 103 67 71c-23-6-38-20-44-43l32-5c15 47 100 32 89-28v-30C133-14 115 1 83 1 29 1 15-40 15-95c0-56 16-97 71-98 29-1 48 16 59 35 1-10 0-23 2-32h30zM94-22c36 0 50-32 50-73 0-42-14-75-50-75-39 0-46 34-46 75s6 73 46 73" id="ah"/><path d="M185-189c-5-48-123-54-124 2 14 75 158 14 163 119 3 78-121 87-175 55-17-10-28-26-33-46l33-7c5 56 141 63 141-1 0-78-155-14-162-118-5-82 145-84 179-34 5 7 8 16 11 25" id="ai"/><path d="M115-194c55 1 70 41 70 98S169 2 115 4C84 4 66-9 55-30l1 105H24l-1-265h31l2 30c10-21 28-34 59-34zm-8 174c40 0 45-34 45-75s-6-73-45-74c-42 0-51 32-51 76 0 43 10 73 51 73" id="aj"/><path d="M212-179c-10-28-35-45-73-45-59 0-87 40-87 99 0 60 29 101 89 101 43 0 62-24 78-52l27 14C228-24 195 4 139 4 59 4 22-46 18-125c-6-104 99-153 187-111 19 9 31 26 39 46" id="ak"/><path d="M117-194c89-4 53 116 60 194h-32v-121c0-31-8-49-39-48C34-167 62-67 57 0H25l-1-190h30c1 10-1 24 2 32 11-22 29-35 61-36" id="al"/><path d="M101-234c-31-9-42 10-38 44h38v23H63V0H32v-167H5v-23h27c-7-52 17-82 69-68v24" id="am"/><path d="M63-220v92h138v28H63V0H30v-248h175v28H63" id="an"/><path d="M30-248c87 1 191-15 191 75 0 78-77 80-158 76V0H30v-248zm33 125c57 0 124 11 124-50 0-59-68-47-124-48v98" id="ao"/><path d="M33 0v-248h34V0H33" id="ap"/><g id="d"><use transform="matrix(0.06172839506172839,0,0,0.06172839506172839,0,0)" xlink:href="#ah"/><use transform="matrix(0.06172839506172839,0,0,0.06172839506172839,12.345679012345679,0)" xlink:href="#ag"/><use transform="matrix(0.06172839506172839,0,0,0.06172839506172839,24.691358024691358,0)" xlink:href="#ac"/><use transform="matrix(0.06172839506172839,0,0,0.06172839506172839,30.864197530864196,0)" xlink:href="#ai"/><use transform="matrix(0.06172839506172839,0,0,0.06172839506172839,45.67901234567901,0)" xlink:href="#aj"/><use transform="matrix(0.06172839506172839,0,0,0.06172839506172839,58.02469135802469,0)" xlink:href="#aj"/><use transform="matrix(0.06172839506172839,0,0,0.06172839506172839,70.37037037037037,0)" xlink:href="#ak"/><use transform="matrix(0.06172839506172839,0,0,0.06172839506172839,86.35802469135803,0)" xlink:href="#Y"/><use transform="matrix(0.06172839506172839,0,0,0.06172839506172839,98.70370370370371,0)" xlink:href="#al"/><use transform="matrix(0.06172839506172839,0,0,0.06172839506172839,111.0493827160494,0)" xlink:href="#am"/><use transform="matrix(0.06172839506172839,0,0,0.06172839506172839,117.22222222222223,0)" xlink:href="#W"/><use transform="matrix(0.06172839506172839,0,0,0.06172839506172839,122.09876543209877,0)" xlink:href="#ah"/><use transform="matrix(0.06172839506172839,0,0,0.06172839506172839,134.44444444444446,0)" xlink:href="#an"/><use transform="matrix(0.06172839506172839,0,0,0.06172839506172839,147.96296296296296,0)" xlink:href="#Y"/><use transform="matrix(0.06172839506172839,0,0,0.06172839506172839,160.30864197530863,0)" xlink:href="#Z"/><use transform="matrix(0.06172839506172839,0,0,0.06172839506172839,167.6543209876543,0)" xlink:href="#af"/><use transform="matrix(0.06172839506172839,0,0,0.06172839506172839,183.64197530864195,0)" xlink:href="#X"/><use transform="matrix(0.06172839506172839,0,0,0.06172839506172839,194.75308641975306,0)" xlink:href="#ag"/><use transform="matrix(0.06172839506172839,0,0,0.06172839506172839,207.09876543209873,0)" xlink:href="#Z"/><use transform="matrix(0.06172839506172839,0,0,0.06172839506172839,214.4444444444444,0)" xlink:href="#T"/><use transform="matrix(0.06172839506172839,0,0,0.06172839506172839,229.2592592592592,0)" xlink:href="#ao"/><use transform="matrix(0.06172839506172839,0,0,0.06172839506172839,244.07407407407402,0)" xlink:href="#ap"/></g><path d="M240 0l2-218c-23 76-54 145-80 218h-23L58-218 59 0H30v-248h44l77 211c21-75 51-140 76-211h43V0h-30" id="aq"/><path d="M210-169c-67 3-38 105-44 169h-31v-121c0-29-5-50-35-48C34-165 62-65 56 0H25l-1-190h30c1 10-1 24 2 32 10-44 99-50 107 0 11-21 27-35 58-36 85-2 47 119 55 194h-31v-121c0-29-5-49-35-48" id="ar"/><g id="e"><use transform="matrix(0.06172839506172839,0,0,0.06172839506172839,0,0)" xlink:href="#aq"/><use transform="matrix(0.06172839506172839,0,0,0.06172839506172839,18.456790123456788,0)" xlink:href="#ag"/><use transform="matrix(0.06172839506172839,0,0,0.06172839506172839,30.80246913580247,0)" xlink:href="#ar"/><use transform="matrix(0.06172839506172839,0,0,0.06172839506172839,49.25925925925925,0)" xlink:href="#Y"/><use transform="matrix(0.06172839506172839,0,0,0.06172839506172839,61.60493827160493,0)" xlink:href="#Z"/><use transform="matrix(0.06172839506172839,0,0,0.06172839506172839,68.9506172839506,0)" xlink:href="#ae"/></g><path d="M30 0v-248h187v28H63v79h144v27H63v87h162V0H30" id="as"/><g id="f"><use transform="matrix(0.06172839506172839,0,0,0.06172839506172839,0,0)" xlink:href="#T"/><use transform="matrix(0.06172839506172839,0,0,0.06172839506172839,14.814814814814813,0)" xlink:href="#ao"/><use transform="matrix(0.06172839506172839,0,0,0.06172839506172839,29.629629629629626,0)" xlink:href="#ap"/><use transform="matrix(0.06172839506172839,0,0,0.06172839506172839,35.80246913580247,0)" xlink:href="#aa"/><use transform="matrix(0.06172839506172839,0,0,0.06172839506172839,53.08641975308642,0)" xlink:href="#as"/><use transform="matrix(0.06172839506172839,0,0,0.06172839506172839,67.90123456790123,0)" xlink:href="#as"/></g><path d="M233-177c-1 41-23 64-60 70L243 0h-38l-65-103H63V0H30v-248c88 3 205-21 203 71zM63-129c60-2 137 13 137-47 0-61-80-42-137-45v92" id="at"/><g id="g"><use transform="matrix(0.06172839506172839,0,0,0.06172839506172839,0,0)" xlink:href="#at"/><use transform="matrix(0.06172839506172839,0,0,0.06172839506172839,15.987654320987653,0)" xlink:href="#ag"/><use transform="matrix(0.06172839506172839,0,0,0.06172839506172839,28.333333333333332,0)" xlink:href="#U"/><use transform="matrix(0.06172839506172839,0,0,0.06172839506172839,40.67901234567901,0)" xlink:href="#W"/><use transform="matrix(0.06172839506172839,0,0,0.06172839506172839,45.55555555555556,0)" xlink:href="#X"/></g><g id="h"><use transform="matrix(0.06172839506172839,0,0,0.06172839506172839,0,0)" xlink:href="#aq"/><use transform="matrix(0.06172839506172839,0,0,0.06172839506172839,18.456790123456788,0)" xlink:href="#Y"/><use transform="matrix(0.06172839506172839,0,0,0.06172839506172839,30.80246913580247,0)" xlink:href="#al"/><use transform="matrix(0.06172839506172839,0,0,0.06172839506172839,43.148148148148145,0)" xlink:href="#ah"/><use transform="matrix(0.06172839506172839,0,0,0.06172839506172839,55.49382716049382,0)" xlink:href="#Y"/></g><path d="M30-248c118-7 216 8 213 122C240-48 200 0 122 0H30v-248zM63-27c89 8 146-16 146-99s-60-101-146-95v194" id="au"/><g id="i"><use transform="matrix(0.06172839506172839,0,0,0.06172839506172839,0,0)" xlink:href="#au"/><use transform="matrix(0.06172839506172839,0,0,0.06172839506172839,15.987654320987653,0)" xlink:href="#W"/><use transform="matrix(0.06172839506172839,0,0,0.06172839506172839,20.864197530864196,0)" xlink:href="#V"/><use transform="matrix(0.06172839506172839,0,0,0.06172839506172839,31.975308641975307,0)" xlink:href="#W"/><use transform="matrix(0.06172839506172839,0,0,0.06172839506172839,36.85185185185185,0)" xlink:href="#X"/><use transform="matrix(0.06172839506172839,0,0,0.06172839506172839,47.96296296296296,0)" xlink:href="#W"/><use transform="matrix(0.06172839506172839,0,0,0.06172839506172839,52.839506172839506,0)" xlink:href="#Y"/><use transform="matrix(0.06172839506172839,0,0,0.06172839506172839,65.18518518518519,0)" xlink:href="#al"/><use transform="matrix(0.06172839506172839,0,0,0.06172839506172839,77.53086419753087,0)" xlink:href="#T"/><use transform="matrix(0.06172839506172839,0,0,0.06172839506172839,92.34567901234568,0)" xlink:href="#ao"/><use transform="matrix(0.06172839506172839,0,0,0.06172839506172839,107.1604938271605,0)" xlink:href="#ap"/></g><path d="M127-220V0H93v-220H8v-28h204v28h-85" id="av"/><path d="M115-194c53 0 69 39 70 98 0 66-23 100-70 100C84 3 66-7 56-30L54 0H23l1-261h32v101c10-23 28-34 59-34zm-8 174c40 0 45-34 45-75 0-40-5-75-45-74-42 0-51 32-51 76 0 43 10 73 51 73" id="aw"/><path d="M96-169c-40 0-48 33-48 73s9 75 48 75c24 0 41-14 43-38l32 2c-6 37-31 61-74 61-59 0-76-41-82-99-10-93 101-131 147-64 4 7 5 14 7 22l-32 3c-4-21-16-35-41-35" id="ax"/><g id="j"><use transform="matrix(0.06172839506172839,0,0,0.06172839506172839,0,0)" xlink:href="#av"/><use transform="matrix(0.06172839506172839,0,0,0.06172839506172839,11.049382716049381,0)" xlink:href="#ag"/><use transform="matrix(0.06172839506172839,0,0,0.06172839506172839,23.39506172839506,0)" xlink:href="#ab"/><use transform="matrix(0.06172839506172839,0,0,0.06172839506172839,35.74074074074074,0)" xlink:href="#ar"/><use transform="matrix(0.06172839506172839,0,0,0.06172839506172839,54.19753086419753,0)" xlink:href="#aq"/><use transform="matrix(0.06172839506172839,0,0,0.06172839506172839,72.65432098765432,0)" xlink:href="#ag"/><use transform="matrix(0.06172839506172839,0,0,0.06172839506172839,85,0)" xlink:href="#ar"/><use transform="matrix(0.06172839506172839,0,0,0.06172839506172839,103.45679012345678,0)" xlink:href="#aw"/><use transform="matrix(0.06172839506172839,0,0,0.06172839506172839,115.80246913580247,0)" xlink:href="#ag"/><use transform="matrix(0.06172839506172839,0,0,0.06172839506172839,128.14814814814815,0)" xlink:href="#Z"/><use transform="matrix(0.06172839506172839,0,0,0.06172839506172839,135.49382716049382,0)" xlink:href="#T"/><use transform="matrix(0.06172839506172839,0,0,0.06172839506172839,150.30864197530863,0)" xlink:href="#aj"/><use transform="matrix(0.06172839506172839,0,0,0.06172839506172839,162.6543209876543,0)" xlink:href="#aj"/><use transform="matrix(0.06172839506172839,0,0,0.06172839506172839,174.99999999999997,0)" xlink:href="#T"/><use transform="matrix(0.06172839506172839,0,0,0.06172839506172839,189.81481481481478,0)" xlink:href="#ax"/><use transform="matrix(0.06172839506172839,0,0,0.06172839506172839,200.9259259259259,0)" xlink:href="#ax"/><use transform="matrix(0.06172839506172839,0,0,0.06172839506172839,212.037037037037,0)" xlink:href="#ag"/><use transform="matrix(0.06172839506172839,0,0,0.06172839506172839,224.38271604938268,0)" xlink:href="#X"/><use transform="matrix(0.06172839506172839,0,0,0.06172839506172839,235.4938271604938,0)" xlink:href="#X"/><use transform="matrix(0.06172839506172839,0,0,0.06172839506172839,246.6049382716049,0)" xlink:href="#T"/><use transform="matrix(0.06172839506172839,0,0,0.06172839506172839,261.41975308641975,0)" xlink:href="#ao"/><use transform="matrix(0.06172839506172839,0,0,0.06172839506172839,276.2345679012346,0)" xlink:href="#ap"/></g><path d="M30 0v-248h33v221h125V0H30" id="ay"/><g id="k"><use transform="matrix(0.06172839506172839,0,0,0.06172839506172839,0,0)" xlink:href="#ay"/><use transform="matrix(0.06172839506172839,0,0,0.06172839506172839,12.345679012345679,0)" xlink:href="#au"/><use transform="matrix(0.06172839506172839,0,0,0.06172839506172839,28.333333333333332,0)" xlink:href="#T"/><use transform="matrix(0.06172839506172839,0,0,0.06172839506172839,43.148148148148145,0)" xlink:href="#ao"/></g><path d="M84 4C-5 8 30-112 23-190h32v120c0 31 7 50 39 49 72-2 45-101 50-169h31l1 190h-30c-1-10 1-25-2-33-11 22-28 36-60 37" id="az"/><g id="l"><use transform="matrix(0.06172839506172839,0,0,0.06172839506172839,0,0)" xlink:href="#ai"/><use transform="matrix(0.06172839506172839,0,0,0.06172839506172839,14.814814814814813,0)" xlink:href="#az"/><use transform="matrix(0.06172839506172839,0,0,0.06172839506172839,27.160493827160494,0)" xlink:href="#aw"/><use transform="matrix(0.06172839506172839,0,0,0.06172839506172839,39.50617283950617,0)" xlink:href="#an"/><use transform="matrix(0.06172839506172839,0,0,0.06172839506172839,53.02469135802469,0)" xlink:href="#W"/><use transform="matrix(0.06172839506172839,0,0,0.06172839506172839,57.901234567901234,0)" xlink:href="#Z"/><use transform="matrix(0.06172839506172839,0,0,0.06172839506172839,65.24691358024691,0)" xlink:href="#ar"/><use transform="matrix(0.06172839506172839,0,0,0.06172839506172839,83.7037037037037,0)" xlink:href="#T"/><use transform="matrix(0.06172839506172839,0,0,0.06172839506172839,98.5185185185185,0)" xlink:href="#ao"/><use transform="matrix(0.06172839506172839,0,0,0.06172839506172839,113.33333333333331,0)" xlink:href="#ap"/></g><path d="M153-248C145-148 188 4 80 4 36 3 13-21 6-62l32-5c4 25 16 42 43 43 27 0 39-20 39-49v-147H72v-28h81" id="aA"/><path d="M24 0v-261h32V0H24" id="aB"/><g id="m"><use transform="matrix(0.06172839506172839,0,0,0.06172839506172839,0,0)" xlink:href="#aA"/><use transform="matrix(0.06172839506172839,0,0,0.06172839506172839,11.11111111111111,0)" xlink:href="#Y"/><use transform="matrix(0.06172839506172839,0,0,0.06172839506172839,23.45679012345679,0)" xlink:href="#aw"/><use transform="matrix(0.06172839506172839,0,0,0.06172839506172839,35.80246913580247,0)" xlink:href="#av"/><use transform="matrix(0.06172839506172839,0,0,0.06172839506172839,48.51851851851852,0)" xlink:href="#W"/><use transform="matrix(0.06172839506172839,0,0,0.06172839506172839,53.39506172839506,0)" xlink:href="#ac"/><use transform="matrix(0.06172839506172839,0,0,0.06172839506172839,59.567901234567906,0)" xlink:href="#aB"/><use transform="matrix(0.06172839506172839,0,0,0.06172839506172839,64.44444444444444,0)" xlink:href="#ag"/><use transform="matrix(0.06172839506172839,0,0,0.06172839506172839,76.79012345679013,0)" xlink:href="#X"/><use transform="matrix(0.06172839506172839,0,0,0.06172839506172839,87.90123456790124,0)" xlink:href="#T"/><use transform="matrix(0.06172839506172839,0,0,0.06172839506172839,102.71604938271605,0)" xlink:href="#ao"/><use transform="matrix(0.06172839506172839,0,0,0.06172839506172839,117.53086419753086,0)" xlink:href="#ap"/></g><path fill="#3a414a" d="M24 0v-248h52V0H24" id="aC"/><path fill="#3a414a" d="M135-194c87-1 58 113 63 194h-50c-7-57 23-157-34-157-59 0-34 97-39 157H25l-1-190h47c2 12-1 28 3 38 12-26 28-41 61-42" id="aD"/><path fill="#3a414a" d="M25-224v-37h50v37H25zM25 0v-190h50V0H25" id="aE"/><path fill="#3a414a" d="M115-3C79 11 28 4 28-45v-112H4v-33h27l15-45h31v45h36v33H77v99c-1 23 16 31 38 25v30" id="aF"/><path fill="#3a414a" d="M133-34C117-15 103 5 69 4 32 3 11-16 11-54c-1-60 55-63 116-61 1-26-3-47-28-47-18 1-26 9-28 27l-52-2c7-38 36-58 82-57s74 22 75 68l1 82c-1 14 12 18 25 15v27c-30 8-71 5-69-32zm-48 3c29 0 43-24 42-57-32 0-66-3-65 30 0 17 8 27 23 27" id="aG"/><path fill="#3a414a" d="M185-48c-13 30-37 53-82 52C43 2 14-33 14-96s30-98 90-98c62 0 83 45 84 108H66c0 31 8 55 39 56 18 0 30-7 34-22zm-45-69c5-46-57-63-70-21-2 6-4 13-4 21h74" id="aH"/><g id="n"><use transform="matrix(0.049366047715882704,0,0,0.049366047715882704,0,0)" xlink:href="#aC"/><use transform="matrix(0.049366047715882704,0,0,0.049366047715882704,4.936604771588271,0)" xlink:href="#aD"/><use transform="matrix(0.049366047715882704,0,0,0.049366047715882704,15.747769221366582,0)" xlink:href="#aE"/><use transform="matrix(0.049366047715882704,0,0,0.049366047715882704,20.684373992954853,0)" xlink:href="#aF"/><use transform="matrix(0.049366047715882704,0,0,0.049366047715882704,26.558933671144896,0)" xlink:href="#aE"/><use transform="matrix(0.049366047715882704,0,0,0.049366047715882704,31.495538442733164,0)" xlink:href="#aG"/><use transform="matrix(0.049366047715882704,0,0,0.049366047715882704,41.36874798590971,0)" xlink:href="#aF"/><use transform="matrix(0.049366047715882704,0,0,0.049366047715882704,47.243307664099746,0)" xlink:href="#aH"/></g><path fill="#3a414a" d="M135-150c-39-12-60 13-60 57V0H25l-1-190h47c2 13-1 29 3 40 6-28 27-53 61-41v41" id="aI"/><path fill="#3a414a" d="M84 4C32 4 15-41 15-95c0-55 18-99 73-99 29 0 47 12 58 34l2-30h48l-1 265h-49V-32C136-9 114 4 84 4zm21-34c32 0 41-29 41-66 0-36-9-64-40-64-33 0-39 30-40 65 0 43 13 65 39 65" id="aJ"/><path fill="#3a414a" d="M85 4C-2 5 27-109 22-190h50c7 57-23 150 33 157 60-5 35-97 40-157h50l1 190h-47c-2-12 1-28-3-38-12 25-28 42-61 42" id="aK"/><path fill="#3a414a" d="M137-138c1-29-70-34-71-4 15 46 118 7 119 86 1 83-164 76-172 9l43-7c4 19 20 25 44 25 33 8 57-30 24-41C81-84 22-81 20-136c-2-80 154-74 161-7" id="aL"/><g id="o"><use transform="matrix(0.049366047715882704,0,0,0.049366047715882704,0,0)" xlink:href="#aI"/><use transform="matrix(0.049366047715882704,0,0,0.049366047715882704,6.911246680223578,0)" xlink:href="#aH"/><use transform="matrix(0.049366047715882704,0,0,0.049366047715882704,16.78445622340012,0)" xlink:href="#aJ"/><use transform="matrix(0.049366047715882704,0,0,0.049366047715882704,27.59562067317843,0)" xlink:href="#aK"/><use transform="matrix(0.049366047715882704,0,0,0.049366047715882704,38.40678512295674,0)" xlink:href="#aH"/><use transform="matrix(0.049366047715882704,0,0,0.049366047715882704,48.279994666133284,0)" xlink:href="#aL"/><use transform="matrix(0.049366047715882704,0,0,0.049366047715882704,58.15320420930983,0)" xlink:href="#aF"/></g><path fill="#3a414a" d="M67-125c0 53 21 87 73 88 37 1 54-22 65-47l45 17C233-25 199 4 140 4 58 4 20-42 15-125 8-235 124-281 211-232c18 10 29 29 36 50l-46 12c-8-25-30-41-62-41-52 0-71 34-72 86" id="aM"/><path fill="#3a414a" d="M114-157C55-157 80-60 75 0H25v-261h50l-1 109c12-26 28-41 61-42 86-1 58 113 63 194h-50c-7-57 23-157-34-157" id="aN"/><path fill="#3a414a" d="M190-63c-7 42-38 67-86 67-59 0-84-38-90-98-12-110 154-137 174-36l-49 2c-2-19-15-32-35-32-30 0-35 28-38 64-6 74 65 87 74 30" id="aO"/><path fill="#3a414a" d="M147 0L96-86 75-71V0H25v-261h50v150l67-79h53l-66 74L201 0h-54" id="aP"/><g id="p"><use transform="matrix(0.049366047715882704,0,0,0.049366047715882704,0,0)" xlink:href="#aM"/><use transform="matrix(0.049366047715882704,0,0,0.049366047715882704,12.78580635841362,0)" xlink:href="#aN"/><use transform="matrix(0.049366047715882704,0,0,0.049366047715882704,23.596970808191934,0)" xlink:href="#aH"/><use transform="matrix(0.049366047715882704,0,0,0.049366047715882704,33.47018035136848,0)" xlink:href="#aO"/><use transform="matrix(0.049366047715882704,0,0,0.049366047715882704,43.34338989454502,0)" xlink:href="#aP"/></g><path fill="#3a414a" d="M199 0l-22-63H83L61 0H9l90-248h61L250 0h-51zm-33-102l-36-108c-10 38-24 72-36 108h72" id="aQ"/><path fill="#3a414a" d="M24-248c93 1 206-16 204 79-1 75-69 88-152 82V0H24v-248zm52 121c47 0 100 7 100-41 0-47-54-39-100-39v80" id="aR"/><path fill="#3a414a" d="M67-125c0 54 23 88 75 88 28 0 53-7 68-21v-34h-60v-39h108v91C232-14 192 4 140 4 58 4 20-42 15-125 8-236 126-280 215-234c19 10 29 26 37 47l-47 15c-11-23-29-39-63-39-53 1-75 33-75 86" id="aS"/><path fill="#3a414a" d="M24 0v-248h195v40H76v63h132v40H76v65h150V0H24" id="aT"/><g id="q"><use transform="matrix(0.049366047715882704,0,0,0.049366047715882704,0,0)" xlink:href="#aQ"/><use transform="matrix(0.049366047715882704,0,0,0.049366047715882704,12.78580635841362,0)" xlink:href="#aR"/><use transform="matrix(0.049366047715882704,0,0,0.049366047715882704,24.63365781022547,0)" xlink:href="#aC"/><use transform="matrix(0.049366047715882704,0,0,0.049366047715882704,29.57026258181374,0)" xlink:href="#aS"/><use transform="matrix(0.049366047715882704,0,0,0.049366047715882704,43.3927559422609,0)" xlink:href="#aT"/><use transform="matrix(0.049366047715882704,0,0,0.049366047715882704,55.24060739407275,0)" xlink:href="#aT"/></g><path fill="#3a414a" d="M110-194c64 0 96 36 96 99 0 64-35 99-97 99-61 0-95-36-95-99 0-62 34-99 96-99zm-1 164c35 0 45-28 45-65 0-40-10-65-43-65-34 0-45 26-45 65 0 36 10 65 43 65" id="aU"/><g id="r"><use transform="matrix(0.049366047715882704,0,0,0.049366047715882704,0,0)" xlink:href="#aF"/><use transform="matrix(0.049366047715882704,0,0,0.049366047715882704,5.8745596781900415,0)" xlink:href="#aU"/><use transform="matrix(0.049366047715882704,0,0,0.049366047715882704,16.685724127968353,0)" xlink:href="#aP"/><use transform="matrix(0.049366047715882704,0,0,0.049366047715882704,26.558933671144896,0)" xlink:href="#aH"/><use transform="matrix(0.049366047715882704,0,0,0.049366047715882704,36.432143214321435,0)" xlink:href="#aD"/></g><g id="s"><use transform="matrix(0.049366047715882704,0,0,0.049366047715882704,0,0)" xlink:href="#T"/><use transform="matrix(0.049366047715882704,0,0,0.049366047715882704,11.847851451811849,0)" xlink:href="#aB"/><use transform="matrix(0.049366047715882704,0,0,0.049366047715882704,15.747769221366582,0)" xlink:href="#ac"/><use transform="matrix(0.049366047715882704,0,0,0.049366047715882704,20.684373992954853,0)" xlink:href="#ag"/><use transform="matrix(0.049366047715882704,0,0,0.049366047715882704,30.5575835361314,0)" xlink:href="#Z"/><use transform="matrix(0.049366047715882704,0,0,0.049366047715882704,36.432143214321435,0)" xlink:href="#al"/><use transform="matrix(0.049366047715882704,0,0,0.049366047715882704,46.30535275749798,0)" xlink:href="#ab"/><use transform="matrix(0.049366047715882704,0,0,0.049366047715882704,56.178562300674514,0)" xlink:href="#ac"/><use transform="matrix(0.049366047715882704,0,0,0.049366047715882704,61.1151670722628,0)" xlink:href="#W"/><use transform="matrix(0.049366047715882704,0,0,0.049366047715882704,65.01508484181753,0)" xlink:href="#V"/><use transform="matrix(0.049366047715882704,0,0,0.049366047715882704,73.90097343067642,0)" xlink:href="#ag"/></g><path d="M26 75v-336h71v23H56V52h41v23H26" id="aV"/><path d="M143 0L79-87 56-68V0H24v-261h32v163l83-92h37l-77 82L181 0h-38" id="aW"/><g id="t"><use transform="matrix(0.049366047715882704,0,0,0.049366047715882704,0,0)" xlink:href="#aV"/><use transform="matrix(0.049366047715882704,0,0,0.049366047715882704,4.936604771588271,0)" xlink:href="#av"/><use transform="matrix(0.049366047715882704,0,0,0.049366047715882704,13.773127312731274,0)" xlink:href="#Y"/><use transform="matrix(0.049366047715882704,0,0,0.049366047715882704,23.646336855907816,0)" xlink:href="#aW"/><use transform="matrix(0.049366047715882704,0,0,0.049366047715882704,32.5322254447667,0)" xlink:href="#ag"/><use transform="matrix(0.049366047715882704,0,0,0.049366047715882704,42.405434987943245,0)" xlink:href="#al"/></g><g id="u"><use transform="matrix(0.049366047715882704,0,0,0.049366047715882704,0,0)" xlink:href="#W"/><use transform="matrix(0.049366047715882704,0,0,0.049366047715882704,3.8999177695547336,0)" xlink:href="#al"/></g><path d="M3 75V52h41v-290H3v-23h71V75H3" id="aX"/><g id="v"><use transform="matrix(0.049366047715882704,0,0,0.049366047715882704,0,0)" xlink:href="#aq"/><use transform="matrix(0.049366047715882704,0,0,0.049366047715882704,14.760448267048929,0)" xlink:href="#ag"/><use transform="matrix(0.049366047715882704,0,0,0.049366047715882704,24.633657810225472,0)" xlink:href="#ar"/><use transform="matrix(0.049366047715882704,0,0,0.049366047715882704,39.3941060772744,0)" xlink:href="#Y"/><use transform="matrix(0.049366047715882704,0,0,0.049366047715882704,49.267315620450944,0)" xlink:href="#Z"/><use transform="matrix(0.049366047715882704,0,0,0.049366047715882704,55.14187529864098,0)" xlink:href="#ae"/><use transform="matrix(0.049366047715882704,0,0,0.049366047715882704,64.02776388749987,0)" xlink:href="#aX"/></g><g id="w"><use transform="matrix(0.049366047715882704,0,0,0.049366047715882704,0,0)" xlink:href="#al"/><use transform="matrix(0.049366047715882704,0,0,0.049366047715882704,9.873209543176541,0)" xlink:href="#Y"/><use transform="matrix(0.049366047715882704,0,0,0.049366047715882704,19.746419086353082,0)" xlink:href="#ac"/></g><path fill="#3a414a" d="M238-95c0 69-44 99-111 99C63 4 22-25 22-93v-155h51v151c-1 38 19 59 55 60 90 1 49-130 58-211h52v153" id="aY"/><g id="x"><use transform="matrix(0.049366047715882704,0,0,0.049366047715882704,0,0)" xlink:href="#aY"/><use transform="matrix(0.049366047715882704,0,0,0.049366047715882704,12.78580635841362,0)" xlink:href="#aL"/><use transform="matrix(0.049366047715882704,0,0,0.049366047715882704,22.65901590159016,0)" xlink:href="#aH"/></g><g id="y"><use transform="matrix(0.049366047715882704,0,0,0.049366047715882704,0,0)" xlink:href="#aF"/><use transform="matrix(0.049366047715882704,0,0,0.049366047715882704,5.8745596781900415,0)" xlink:href="#aU"/><use transform="matrix(0.049366047715882704,0,0,0.049366047715882704,16.685724127968353,0)" xlink:href="#aP"/><use transform="matrix(0.049366047715882704,0,0,0.049366047715882704,26.558933671144896,0)" xlink:href="#aH"/><use transform="matrix(0.049366047715882704,0,0,0.049366047715882704,36.432143214321435,0)" xlink:href="#aD"/></g><path fill="#3a414a" d="M76-208v77h127v40H76V0H24v-248h183v40H76" id="aZ"/><g id="z"><use transform="matrix(0.049366047715882704,0,0,0.049366047715882704,0,0)" xlink:href="#aZ"/><use transform="matrix(0.049366047715882704,0,0,0.049366047715882704,10.811164449778312,0)" xlink:href="#aH"/><use transform="matrix(0.049366047715882704,0,0,0.049366047715882704,20.684373992954853,0)" xlink:href="#aF"/><use transform="matrix(0.049366047715882704,0,0,0.049366047715882704,26.558933671144896,0)" xlink:href="#aO"/><use transform="matrix(0.049366047715882704,0,0,0.049366047715882704,36.432143214321435,0)" xlink:href="#aN"/></g><path fill="#3a414a" d="M240-174c0 40-23 61-54 70L253 0h-59l-57-94H76V0H24v-248c93 4 217-23 216 74zM76-134c48-2 112 12 112-38 0-48-66-32-112-35v73" id="ba"/><g id="A"><use transform="matrix(0.049366047715882704,0,0,0.049366047715882704,0,0)" xlink:href="#ba"/><use transform="matrix(0.049366047715882704,0,0,0.049366047715882704,12.78580635841362,0)" xlink:href="#aH"/><use transform="matrix(0.049366047715882704,0,0,0.049366047715882704,22.65901590159016,0)" xlink:href="#aF"/><use transform="matrix(0.049366047715882704,0,0,0.049366047715882704,28.5335755797802,0)" xlink:href="#aK"/><use transform="matrix(0.049366047715882704,0,0,0.049366047715882704,39.344740029558515,0)" xlink:href="#aI"/><use transform="matrix(0.049366047715882704,0,0,0.049366047715882704,46.25598670978209,0)" xlink:href="#aD"/></g><path fill="#3a414a" d="M169-182c-1-43-94-46-97-3 18 66 151 10 154 114 3 95-165 93-204 36-6-8-10-19-12-30l50-8c3 46 112 56 116 5-17-69-150-10-154-114-4-87 153-88 188-35 5 8 8 18 10 28" id="bb"/><path fill="#3a414a" d="M128 0H69L1-190h53L99-40l48-150h52" id="bc"/><g id="B"><use transform="matrix(0.049366047715882704,0,0,0.049366047715882704,0,0)" xlink:href="#bb"/><use transform="matrix(0.049366047715882704,0,0,0.049366047715882704,11.847851451811849,0)" xlink:href="#aG"/><use transform="matrix(0.049366047715882704,0,0,0.049366047715882704,21.72106099498839,0)" xlink:href="#bc"/><use transform="matrix(0.049366047715882704,0,0,0.049366047715882704,31.594270538164935,0)" xlink:href="#aH"/></g><path fill="#3a414a" d="M24-248c120-7 223 5 221 122C244-46 201 0 124 0H24v-248zM76-40c74 7 117-18 117-86 0-67-45-88-117-82v168" id="bd"/><g id="C"><use transform="matrix(0.049366047715882704,0,0,0.049366047715882704,0,0)" xlink:href="#bd"/><use transform="matrix(0.049366047715882704,0,0,0.049366047715882704,12.78580635841362,0)" xlink:href="#aE"/><use transform="matrix(0.049366047715882704,0,0,0.049366047715882704,17.72241113000189,0)" xlink:href="#bc"/><use transform="matrix(0.049366047715882704,0,0,0.049366047715882704,27.59562067317843,0)" xlink:href="#aE"/><use transform="matrix(0.049366047715882704,0,0,0.049366047715882704,32.5322254447667,0)" xlink:href="#aL"/><use transform="matrix(0.049366047715882704,0,0,0.049366047715882704,42.405434987943245,0)" xlink:href="#aE"/><use transform="matrix(0.049366047715882704,0,0,0.049366047715882704,47.34203975953152,0)" xlink:href="#aU"/><use transform="matrix(0.049366047715882704,0,0,0.049366047715882704,58.15320420930983,0)" xlink:href="#aD"/><use transform="matrix(0.049366047715882704,0,0,0.049366047715882704,68.96436865908814,0)" xlink:href="#aQ"/><use transform="matrix(0.049366047715882704,0,0,0.049366047715882704,81.75017501750176,0)" xlink:href="#aR"/><use transform="matrix(0.049366047715882704,0,0,0.049366047715882704,93.59802646931361,0)" xlink:href="#aC"/></g><path fill="#3a414a" d="M135-194c53 0 70 44 70 98 0 56-19 98-73 100-31 1-45-17-59-34 3 33 2 69 2 105H25l-1-265h48c2 10 0 23 3 31 11-24 29-35 60-35zM114-30c33 0 39-31 40-66 0-38-9-64-40-64-56 0-55 130 0 130" id="be"/><g id="D"><use transform="matrix(0.049366047715882704,0,0,0.049366047715882704,0,0)" xlink:href="#aI"/><use transform="matrix(0.049366047715882704,0,0,0.049366047715882704,6.911246680223578,0)" xlink:href="#aH"/><use transform="matrix(0.049366047715882704,0,0,0.049366047715882704,16.78445622340012,0)" xlink:href="#aL"/><use transform="matrix(0.049366047715882704,0,0,0.049366047715882704,26.657665766576667,0)" xlink:href="#be"/><use transform="matrix(0.049366047715882704,0,0,0.049366047715882704,37.468830216354974,0)" xlink:href="#aU"/><use transform="matrix(0.049366047715882704,0,0,0.049366047715882704,48.279994666133284,0)" xlink:href="#aD"/><use transform="matrix(0.049366047715882704,0,0,0.049366047715882704,59.091159115911594,0)" xlink:href="#aL"/><use transform="matrix(0.049366047715882704,0,0,0.049366047715882704,68.96436865908814,0)" xlink:href="#aH"/></g><g id="E"><use transform="matrix(0.049366047715882704,0,0,0.049366047715882704,0,0)" xlink:href="#aV"/><use transform="matrix(0.049366047715882704,0,0,0.049366047715882704,4.936604771588271,0)" xlink:href="#at"/><use transform="matrix(0.049366047715882704,0,0,0.049366047715882704,17.72241113000189,0)" xlink:href="#ag"/><use transform="matrix(0.049366047715882704,0,0,0.049366047715882704,27.59562067317843,0)" xlink:href="#U"/><use transform="matrix(0.049366047715882704,0,0,0.049366047715882704,37.468830216354974,0)" xlink:href="#W"/><use transform="matrix(0.049366047715882704,0,0,0.049366047715882704,41.36874798590971,0)" xlink:href="#X"/></g><g id="F"><use transform="matrix(0.049366047715882704,0,0,0.049366047715882704,0,0)" xlink:href="#ab"/><use transform="matrix(0.049366047715882704,0,0,0.049366047715882704,9.873209543176541,0)" xlink:href="#V"/><use transform="matrix(0.049366047715882704,0,0,0.049366047715882704,18.759098132035426,0)" xlink:href="#ab"/><use transform="matrix(0.049366047715882704,0,0,0.049366047715882704,28.63230767521197,0)" xlink:href="#W"/><use transform="matrix(0.049366047715882704,0,0,0.049366047715882704,32.5322254447667,0)" xlink:href="#aB"/><use transform="matrix(0.049366047715882704,0,0,0.049366047715882704,36.432143214321435,0)" xlink:href="#ab"/><use transform="matrix(0.049366047715882704,0,0,0.049366047715882704,46.30535275749798,0)" xlink:href="#aw"/><use transform="matrix(0.049366047715882704,0,0,0.049366047715882704,56.178562300674514,0)" xlink:href="#aB"/><use transform="matrix(0.049366047715882704,0,0,0.049366047715882704,60.07848007022925,0)" xlink:href="#ag"/><use transform="matrix(0.049366047715882704,0,0,0.049366047715882704,69.95168961340579,0)" xlink:href="#aX"/></g><g id="G"><use transform="matrix(0.049366047715882704,0,0,0.049366047715882704,0,0)" xlink:href="#az"/><use transform="matrix(0.049366047715882704,0,0,0.049366047715882704,9.873209543176541,0)" xlink:href="#al"/><use transform="matrix(0.049366047715882704,0,0,0.049366047715882704,19.746419086353082,0)" xlink:href="#ab"/><use transform="matrix(0.049366047715882704,0,0,0.049366047715882704,29.619628629529622,0)" xlink:href="#V"/><use transform="matrix(0.049366047715882704,0,0,0.049366047715882704,38.505517218388505,0)" xlink:href="#ab"/><use transform="matrix(0.049366047715882704,0,0,0.049366047715882704,48.37872676156505,0)" xlink:href="#W"/><use transform="matrix(0.049366047715882704,0,0,0.049366047715882704,52.27864453111978,0)" xlink:href="#aB"/><use transform="matrix(0.049366047715882704,0,0,0.049366047715882704,56.178562300674514,0)" xlink:href="#ab"/><use transform="matrix(0.049366047715882704,0,0,0.049366047715882704,66.05177184385106,0)" xlink:href="#aw"/><use transform="matrix(0.049366047715882704,0,0,0.049366047715882704,75.9249813870276,0)" xlink:href="#aB"/><use transform="matrix(0.049366047715882704,0,0,0.049366047715882704,79.82489915658233,0)" xlink:href="#ag"/><use transform="matrix(0.049366047715882704,0,0,0.049366047715882704,89.69810869975888,0)" xlink:href="#aX"/></g><path fill="#3a414a" d="M88-194c31-1 46 15 58 34l-1-101h50l1 261h-48c-2-10 0-23-3-31C134-8 116 4 84 4 32 4 16-41 15-95c0-56 19-97 73-99zm17 164c33 0 40-30 41-66 1-37-9-64-41-64s-38 30-39 65c0 43 13 65 39 65" id="bf"/><g id="H"><use transform="matrix(0.049366047715882704,0,0,0.049366047715882704,0,0)" xlink:href="#bf"/><use transform="matrix(0.049366047715882704,0,0,0.049366047715882704,10.811164449778312,0)" xlink:href="#aG"/><use transform="matrix(0.049366047715882704,0,0,0.049366047715882704,20.684373992954853,0)" xlink:href="#aF"/><use transform="matrix(0.049366047715882704,0,0,0.049366047715882704,26.558933671144896,0)" xlink:href="#aG"/></g><path fill="#3a414a" d="M136-208V0H84v-208H4v-40h212v40h-80" id="bg"/><path fill="#3a414a" d="M220-157c-53 9-28 100-34 157h-49v-107c1-27-5-49-29-50C55-147 81-57 75 0H25l-1-190h47c2 12-1 28 3 38 10-53 101-56 108 0 13-22 24-43 59-42 82 1 51 116 57 194h-49v-107c-1-25-5-48-29-50" id="bh"/><path fill="#3a414a" d="M230 0l2-204L168 0h-37L68-204 70 0H24v-248h70l56 185 57-185h69V0h-46" id="bi"/><path fill="#3a414a" d="M135-194c52 0 70 43 70 98 0 56-19 99-73 100-30 1-46-15-58-35L72 0H24l1-261h50v104c11-23 29-37 60-37zM114-30c31 0 40-27 40-66 0-37-7-63-39-63s-41 28-41 65c0 36 8 64 40 64" id="bj"/><g id="I"><use transform="matrix(0.049366047715882704,0,0,0.049366047715882704,0,0)" xlink:href="#bg"/><use transform="matrix(0.049366047715882704,0,0,0.049366047715882704,9.478281161449479,0)" xlink:href="#aH"/><use transform="matrix(0.049366047715882704,0,0,0.049366047715882704,19.35149070462602,0)" xlink:href="#aG"/><use transform="matrix(0.049366047715882704,0,0,0.049366047715882704,29.22470024780256,0)" xlink:href="#bh"/><use transform="matrix(0.049366047715882704,0,0,0.049366047715882704,45.02183551688503,0)" xlink:href="#bi"/><use transform="matrix(0.049366047715882704,0,0,0.049366047715882704,59.782283783933956,0)" xlink:href="#aH"/><use transform="matrix(0.049366047715882704,0,0,0.049366047715882704,69.65549332711049,0)" xlink:href="#bh"/><use transform="matrix(0.049366047715882704,0,0,0.049366047715882704,85.45262859619295,0)" xlink:href="#bj"/><use transform="matrix(0.049366047715882704,0,0,0.049366047715882704,96.26379304597127,0)" xlink:href="#aH"/><use transform="matrix(0.049366047715882704,0,0,0.049366047715882704,106.13700258914781,0)" xlink:href="#aI"/><use transform="matrix(0.049366047715882704,0,0,0.049366047715882704,113.0482492693714,0)" xlink:href="#aQ"/><use transform="matrix(0.049366047715882704,0,0,0.049366047715882704,125.834055627785,0)" xlink:href="#be"/><use transform="matrix(0.049366047715882704,0,0,0.049366047715882704,136.64522007756332,0)" xlink:href="#be"/><use transform="matrix(0.049366047715882704,0,0,0.049366047715882704,147.45638452734164,0)" xlink:href="#aQ"/><use transform="matrix(0.049366047715882704,0,0,0.049366047715882704,160.24219088575526,0)" xlink:href="#aO"/><use transform="matrix(0.049366047715882704,0,0,0.049366047715882704,170.1154004289318,0)" xlink:href="#aO"/><use transform="matrix(0.049366047715882704,0,0,0.049366047715882704,179.98860997210832,0)" xlink:href="#aH"/><use transform="matrix(0.049366047715882704,0,0,0.049366047715882704,189.86181951528485,0)" xlink:href="#aL"/><use transform="matrix(0.049366047715882704,0,0,0.049366047715882704,199.73502905846138,0)" xlink:href="#aL"/><use transform="matrix(0.049366047715882704,0,0,0.049366047715882704,209.6082386016379,0)" xlink:href="#aQ"/><use transform="matrix(0.049366047715882704,0,0,0.049366047715882704,222.39404496005153,0)" xlink:href="#aR"/><use transform="matrix(0.049366047715882704,0,0,0.049366047715882704,234.2418964118634,0)" xlink:href="#aC"/></g><path d="M106-169C34-169 62-67 57 0H25v-261h32l-1 103c12-21 28-36 61-36 89 0 53 116 60 194h-32v-121c2-32-8-49-39-48" id="bk"/><g id="J"><use transform="matrix(0.049366047715882704,0,0,0.049366047715882704,0,0)" xlink:href="#aV"/><use transform="matrix(0.049366047715882704,0,0,0.049366047715882704,4.936604771588271,0)" xlink:href="#ak"/><use transform="matrix(0.049366047715882704,0,0,0.049366047715882704,17.72241113000189,0)" xlink:href="#bk"/><use transform="matrix(0.049366047715882704,0,0,0.049366047715882704,27.59562067317843,0)" xlink:href="#ag"/><use transform="matrix(0.049366047715882704,0,0,0.049366047715882704,37.468830216354974,0)" xlink:href="#ax"/><use transform="matrix(0.049366047715882704,0,0,0.049366047715882704,46.354718805213864,0)" xlink:href="#aW"/></g><g id="K"><use transform="matrix(0.049366047715882704,0,0,0.049366047715882704,0,0)" xlink:href="#ay"/><use transform="matrix(0.049366047715882704,0,0,0.049366047715882704,9.873209543176541,0)" xlink:href="#au"/><use transform="matrix(0.049366047715882704,0,0,0.049366047715882704,22.65901590159016,0)" xlink:href="#T"/><use transform="matrix(0.049366047715882704,0,0,0.049366047715882704,34.50686735340201,0)" xlink:href="#ao"/></g><g id="L"><use transform="matrix(0.049366047715882704,0,0,0.049366047715882704,0,0)" xlink:href="#W"/><use transform="matrix(0.049366047715882704,0,0,0.049366047715882704,3.8999177695547336,0)" xlink:href="#am"/></g><g id="M"><use transform="matrix(0.049366047715882704,0,0,0.049366047715882704,0,0)" xlink:href="#al"/><use transform="matrix(0.049366047715882704,0,0,0.049366047715882704,9.873209543176541,0)" xlink:href="#ag"/><use transform="matrix(0.049366047715882704,0,0,0.049366047715882704,19.746419086353082,0)" xlink:href="#ax"/><use transform="matrix(0.049366047715882704,0,0,0.049366047715882704,28.63230767521197,0)" xlink:href="#ag"/><use transform="matrix(0.049366047715882704,0,0,0.049366047715882704,38.50551721838851,0)" xlink:href="#X"/><use transform="matrix(0.049366047715882704,0,0,0.049366047715882704,47.391405807247395,0)" xlink:href="#X"/><use transform="matrix(0.049366047715882704,0,0,0.049366047715882704,56.277294396106285,0)" xlink:href="#ab"/><use transform="matrix(0.049366047715882704,0,0,0.049366047715882704,66.15050393928283,0)" xlink:href="#Z"/><use transform="matrix(0.049366047715882704,0,0,0.049366047715882704,72.02506361747287,0)" xlink:href="#ae"/><use transform="matrix(0.049366047715882704,0,0,0.049366047715882704,80.91095220633176,0)" xlink:href="#aX"/></g><path fill="#3a414a" d="M121-226c-27-7-43 5-38 36h38v33H83V0H34v-157H6v-33h28c-9-59 32-81 87-68v32" id="bl"/><g id="N"><use transform="matrix(0.049366047715882704,0,0,0.049366047715882704,0,0)" xlink:href="#aL"/><use transform="matrix(0.049366047715882704,0,0,0.049366047715882704,9.873209543176541,0)" xlink:href="#aK"/><use transform="matrix(0.049366047715882704,0,0,0.049366047715882704,20.684373992954853,0)" xlink:href="#bj"/><use transform="matrix(0.049366047715882704,0,0,0.049366047715882704,31.495538442733164,0)" xlink:href="#bl"/><use transform="matrix(0.049366047715882704,0,0,0.049366047715882704,37.3700981209232,0)" xlink:href="#aE"/><use transform="matrix(0.049366047715882704,0,0,0.049366047715882704,42.306702892511474,0)" xlink:href="#aI"/><use transform="matrix(0.049366047715882704,0,0,0.049366047715882704,49.21794957273505,0)" xlink:href="#bh"/></g><g id="O"><use transform="matrix(0.049366047715882704,0,0,0.049366047715882704,0,0)" xlink:href="#bf"/><use transform="matrix(0.049366047715882704,0,0,0.049366047715882704,10.811164449778312,0)" xlink:href="#aG"/><use transform="matrix(0.049366047715882704,0,0,0.049366047715882704,20.684373992954853,0)" xlink:href="#aF"/><use transform="matrix(0.049366047715882704,0,0,0.049366047715882704,26.558933671144896,0)" xlink:href="#aG"/></g><path fill="#3a414a" d="M25-224v-37h50v37H25zM75 22c2 45-34 59-81 51V38c22 5 31-5 31-27v-201h50V22" id="bm"/><g id="P"><use transform="matrix(0.049366047715882704,0,0,0.049366047715882704,0,0)" xlink:href="#bm"/><use transform="matrix(0.049366047715882704,0,0,0.049366047715882704,4.936604771588271,0)" xlink:href="#aU"/><use transform="matrix(0.049366047715882704,0,0,0.049366047715882704,15.747769221366582,0)" xlink:href="#bj"/></g><path fill="#3a414a" d="M25 0v-261h50V0H25" id="bn"/><g id="Q"><use transform="matrix(0.049366047715882704,0,0,0.049366047715882704,0,0)" xlink:href="#aF"/><use transform="matrix(0.049366047715882704,0,0,0.049366047715882704,5.8745596781900415,0)" xlink:href="#aE"/><use transform="matrix(0.049366047715882704,0,0,0.049366047715882704,10.811164449778312,0)" xlink:href="#aF"/><use transform="matrix(0.049366047715882704,0,0,0.049366047715882704,16.685724127968353,0)" xlink:href="#bn"/><use transform="matrix(0.049366047715882704,0,0,0.049366047715882704,21.622328899556624,0)" xlink:href="#aH"/><use transform="matrix(0.049366047715882704,0,0,0.049366047715882704,31.495538442733164,0)" xlink:href="#aL"/></g><g id="R"><use transform="matrix(0.049366047715882704,0,0,0.049366047715882704,0,0)" xlink:href="#aO"/><use transform="matrix(0.049366047715882704,0,0,0.049366047715882704,9.873209543176541,0)" xlink:href="#aU"/><use transform="matrix(0.049366047715882704,0,0,0.049366047715882704,20.684373992954853,0)" xlink:href="#bh"/><use transform="matrix(0.049366047715882704,0,0,0.049366047715882704,36.48150926203732,0)" xlink:href="#be"/><use transform="matrix(0.049366047715882704,0,0,0.049366047715882704,47.29267371181563,0)" xlink:href="#aE"/><use transform="matrix(0.049366047715882704,0,0,0.049366047715882704,52.2292784834039,0)" xlink:href="#bn"/><use transform="matrix(0.049366047715882704,0,0,0.049366047715882704,57.165883254992174,0)" xlink:href="#aH"/><use transform="matrix(0.049366047715882704,0,0,0.049366047715882704,67.03909279816871,0)" xlink:href="#bf"/></g><g id="S"><use transform="matrix(0.049366047715882704,0,0,0.049366047715882704,0,0)" xlink:href="#aI"/><use transform="matrix(0.049366047715882704,0,0,0.049366047715882704,6.911246680223578,0)" xlink:href="#aH"/><use transform="matrix(0.049366047715882704,0,0,0.049366047715882704,16.78445622340012,0)" xlink:href="#aL"/><use transform="matrix(0.049366047715882704,0,0,0.049366047715882704,26.657665766576667,0)" xlink:href="#aK"/><use transform="matrix(0.049366047715882704,0,0,0.049366047715882704,37.468830216354974,0)" xlink:href="#bn"/><use transform="matrix(0.049366047715882704,0,0,0.049366047715882704,42.405434987943245,0)" xlink:href="#aF"/></g></defs></g></svg>